<svg xmlns="http://www.w3.org/2000/svg" viewBox="0 0 48 48"><defs><style>.cls-1{fill:#262626;}</style></defs><title>Expand</title><g id="Sketch"><path class="cls-1" d="M4,8V40H44V8ZM41,37H7V11H41ZM40,24l-1.41,1.41L34,30l-1.41-1.41L36.17,25H25v7.16l3.59-3.59L30,30l-4.59,4.59L24,36l-1.41-1.41L18,30l1.41-1.41L23,32.16V25H11.83l3.59,3.59L14,30,9.41,25.41,8,24l1.41-1.41L14,18l1.41,1.41L11.83,23H23V15.83l-3.59,3.59L18,18l4.59-4.59L24,12l1.41,1.41L30,18l-1.41,1.41L25,15.83V23H36.17l-3.59-3.59L34,18l4.59,4.59Z"/></g></svg>