<svg xmlns="http://www.w3.org/2000/svg" viewBox="0 0 48 48"><defs><style>.cls-1{fill:#262626;}</style></defs><title>Settings</title><g id="Sketch"><path class="cls-1" d="M24,18.67A5.33,5.33,0,1,1,18.67,24,5.34,5.34,0,0,1,24,18.67M24,16a8,8,0,1,0,8,8,8,8,0,0,0-8-8ZM44,28V20l-4.73-.95-1-2.35,2.68-4L35.31,7l-4,2.68-2.35-1L28,4H20l-.95,4.73-2.35,1L12.69,7,7,12.69l2.68,4-1,2.35L4,20v8l4.73.95,1,2.35L7,35.31,12.69,41l4-2.68,2.35,1L20,44h8l.95-4.73,2.35-1,4,2.68L41,35.31l-2.68-4,1-2.35Zm-6.89-1.68-2.2,5.31,2.2,3.3-2.18,2.18-3.3-2.2-5.31,2.2L25.54,41H22.46l-.78-3.89-5.31-2.2-3.3,2.2-2.18-2.18,2.2-3.3-2.2-5.31L7,25.54V22.46l3.89-.78,2.2-5.31-2.2-3.3,2.18-2.18,3.3,2.2,5.31-2.2L22.46,7h3.08l.78,3.89,5.31,2.2,3.3-2.2,2.18,2.18-2.2,3.3,2.2,5.31,3.89.78v3.08Z"/></g></svg>