<svg xmlns="http://www.w3.org/2000/svg" viewBox="0 0 48 48"><defs><style>.cls-1{fill:#fff;}</style></defs><title>unit</title><g id="Sketch"><polygon class="cls-1" points="7 32 4 32 4 41 4 44 7 44 16 44 16 41 7 41 7 32"/><polygon class="cls-1" points="41 4 32 4 32 7 41 7 41 16 44 16 44 7 44 4 41 4"/><polygon class="cls-1" points="4 4 4 7 4 16 7 16 7 7 16 7 16 4 7 4 4 4"/><path class="cls-1" d="M28,25.5C28,28,26.48,30,24,30s-4-2-4-4.5V16H17v9.5c0,4.14,2.86,7.5,7,7.5s7-3.36,7-7.5V16H28Z"/><polygon class="cls-1" points="41 41 32 41 32 44 41 44 44 44 44 41 44 32 41 32 41 41"/></g></svg>