<svg xmlns="http://www.w3.org/2000/svg" viewBox="0 0 72 72"><defs><style>.cls-1{fill:#fff;}.cls-2,.cls-3{fill:none;stroke-miterlimit:10;}.cls-2{stroke:#b2b2b2;}.cls-3{stroke:#262626;stroke-linecap:round;}</style></defs><title>contact</title><g id="contents"><rect class="cls-1" width="72" height="72"/><path class="cls-2" d="M31.64,29.57H62.5A1.44,1.44,0,0,1,63.94,31V50.38a1.44,1.44,0,0,1-1.44,1.44H58.91v6.52a.72.72,0,0,1-1.23.5l-4.87-7H31.64a1.44,1.44,0,0,1-1.44-1.44V31A1.44,1.44,0,0,1,31.64,29.57Z"/><path class="cls-3" d="M53.06,13h-43a2,2,0,0,0-2,2V42a2,2,0,0,0,2,2h5V53a1,1,0,0,0,1.71.7L23.57,44H53.06a2,2,0,0,0,2-2V15A2,2,0,0,0,53.06,13Z"/></g></svg>