<svg xmlns="http://www.w3.org/2000/svg" viewBox="0 0 48 48"><defs><style>.cls-1{fill:#262626;}.cls-2,.cls-3{fill:none;stroke-miterlimit:10;stroke-width:3px;}.cls-2{stroke:#8c8c8c;}.cls-3{stroke:#262626;}</style></defs><title>ControlerProfile</title><g id="Sketch"><path class="cls-1" d="M24,9A17,17,0,1,1,7,26,17,17,0,0,1,24,9m0-3A20,20,0,1,0,44,26,20,20,0,0,0,24,6Z"/><path class="cls-2" d="M24,16.81A9.35,9.35,0,0,1,33.5,26,9.35,9.35,0,0,1,24,35.19,9.35,9.35,0,0,1,14.5,26"/><polygon class="cls-1" points="29.5 1 17.5 1 17.5 4 29.5 4 29.5 1 29.5 1"/><polygon class="cls-1" points="25 1 22 1 22 9 25 9 25 1 25 1"/><line class="cls-3" x1="23" y1="26" x2="34" y2="15"/></g></svg>