<?xml version="1.0" encoding="utf-8"?>
<!-- Generator: Adobe Illustrator 23.0.3, SVG Export Plug-In . SVG Version: 6.00 Build 0)  -->
<svg version="1.1" id="レイヤー_1" xmlns="http://www.w3.org/2000/svg" xmlns:xlink="http://www.w3.org/1999/xlink" x="0px"
	 y="0px" viewBox="0 0 48 48" style="enable-background:new 0 0 48 48;" xml:space="preserve">
<style type="text/css">
	.st0{display:none;}
	.st1{display:inline;}
	.st2{fill:#262626;}
</style>
<g class="st0">
	<title>Download</title>
	<g id="Sketch" class="st1">
		<path class="st2" d="M24,35L9,20l2.1-2.1l11.4,11.4V6h3v23.3l11.4-11.4L39,20L24,35z M9,42h30v-3H9V42z"/>
	</g>
	<path class="st1" d="M32.8,6c-3.4,0-6.7,1.6-8.8,4.1C21.9,7.6,18.6,6,15.2,6c-6,0-10.8,4.7-10.8,10.8c0,7.4,6.7,13.5,16.8,22.6
		L24,42l2.8-2.6c10.1-9.2,16.8-15.2,16.8-22.6C43.6,10.7,38.9,6,32.8,6z M24.2,36.5L24,36.7l-0.2-0.2C14.5,28,8.3,22.5,8.3,16.8
		c0-3.9,2.9-6.9,6.9-6.9c3,0,6,1.9,7,4.6h3.7c1-2.7,4-4.6,7-4.6c3.9,0,6.9,2.9,6.9,6.9C39.7,22.5,33.5,28.1,24.2,36.5z"/>
</g>
<g>
	<path class="st2" d="M24,42l-0.9-0.8c-0.4-0.4-10.4-9.2-13-12.5l-0.2-0.3c-2.4-3-5.5-6.7-5.1-12.1c0.4-5.5,4.1-8.1,5.7-8.9
		c1.9-1.1,4-1.6,6.4-1.4c3,0.2,4.5,1.2,5.1,1.6c0.8,0.5,1.6,1.1,2.1,1.6c0.5-0.5,1.3-1.1,2.1-1.6c0.7-0.4,2.1-1.4,5.1-1.6
		c3-0.2,5.1,0.7,6.4,1.4l0.1,0.1c3.4,2.1,5.2,5.1,5.5,8.9c0.4,5.4-2.6,9.1-5.1,12.1l-0.2,0.3c-2.6,3.2-12.6,12.1-13,12.5L24,42z
		 M16,8.7c-1.5,0-2.9,0.4-4.2,1.1c-1.5,0.8-4,2.8-4.3,6.8c-0.3,4.3,2.1,7.3,4.5,10.1l0.2,0.3c2,2.5,9.2,9,11.8,11.3
		c2.6-2.3,9.8-8.8,11.8-11.3l0.3-0.3c2.3-2.9,4.8-5.8,4.5-10.1v0c-0.3-4.3-3.2-6.2-4.2-6.8c-1-0.6-2.6-1.2-4.8-1.1
		c-2.3,0.2-3.3,0.8-3.8,1.1L27.6,10c-1.4,0.8-2.4,2-2.4,2l-1.1,1.3L23,12c0,0-1.1-1.3-2.4-2l-0.1-0.1c-0.4-0.3-1.5-1-3.8-1.1
		C16.5,8.7,16.3,8.7,16,8.7z"/>
</g>
</svg>
