<svg xmlns="http://www.w3.org/2000/svg" viewBox="0 0 48 48"><defs><style>.cls-1{fill:#262626;}</style></defs><title>Linked</title><g id="Sketch"><path class="cls-1" d="M44,28v1a9,9,0,0,1-9,9H25a9,9,0,0,1-9-9V28c0-.3,0-.59,0-.89,0-.1,0-.19,0-.29s.05-.38.09-.57.05-.23.08-.34.08-.33.13-.49.08-.24.12-.36.1-.3.16-.44.11-.24.16-.36.13-.27.19-.4l.2-.36.22-.36.24-.35.24-.32.28-.34.26-.29.32-.32.27-.25.36-.31.27-.2.41-.29.26-.16.47-.27.22-.11.55-.25.09,0A8.9,8.9,0,0,1,25,19v3a6,6,0,0,0-1,.09h0a6,6,0,0,0-1,.27h0a6,6,0,0,0-2.52,1.74l0,0a6,6,0,0,0-.56.78l-.06.1a6,6,0,0,0-.4.84l0,.13a5.93,5.93,0,0,0-.25.91l0,.12A6,6,0,0,0,19,28v1a6,6,0,0,0,6,6H35a6,6,0,0,0,6-6V28a6,6,0,0,0-.09-1l0-.12a5.93,5.93,0,0,0-.25-.91l0-.13a6,6,0,0,0-.4-.84l-.06-.1a6,6,0,0,0-.56-.78l0,0A6,6,0,0,0,37,22.36h0a6,6,0,0,0-1-.27h0A6,6,0,0,0,35,22V19a8.9,8.9,0,0,1,3.32.65l.09,0,.55.25.22.11.47.27.26.16.41.29.27.2.36.31.27.25.32.32.26.29.28.34.24.32.24.35.22.36.2.36c.07.13.13.27.19.4s.11.24.16.36.11.29.16.44.09.24.12.36.09.33.13.49.06.23.08.34.06.38.09.57,0,.19,0,.29C44,27.41,44,27.7,44,28ZM4,20.89c0,.1,0,.19,0,.29s.05.38.09.57.05.23.08.34.08.33.13.49.08.24.12.36.1.3.16.44.11.24.16.36.13.27.19.4l.2.36.22.36.24.35.24.32.28.34.26.29.32.32.27.25.36.31.27.2.41.29.26.16.47.27.22.11.55.25.09,0A8.9,8.9,0,0,0,13,29V26a6,6,0,0,1-1-.09h0a6,6,0,0,1-1-.27h0A6,6,0,0,1,8.45,23.9l0,0a6,6,0,0,1-.56-.78L7.81,23a6,6,0,0,1-.4-.84l0-.13a5.93,5.93,0,0,1-.25-.91l0-.12A6,6,0,0,1,7,20V19a6,6,0,0,1,6-6H23a6,6,0,0,1,6,6v1a6,6,0,0,1-.09,1l0,.12a5.93,5.93,0,0,1-.25.91l0,.13a6,6,0,0,1-.4.84l-.06.1a6,6,0,0,1-.56.78l0,0A6,6,0,0,1,25,25.64h0a6,6,0,0,1-1,.27h0A6,6,0,0,1,23,26v3a8.9,8.9,0,0,0,3.32-.65l.09,0,.55-.25.22-.11.47-.27.26-.16.41-.29.27-.2.36-.31.27-.25.32-.32.26-.29.28-.34.24-.32.24-.35.22-.36.2-.36c.07-.13.13-.27.19-.4s.11-.24.16-.36.11-.29.16-.44.09-.24.12-.36.09-.33.13-.49.06-.23.08-.34.06-.38.09-.57,0-.19,0-.29c0-.29,0-.59,0-.89V19a9,9,0,0,0-9-9H13a9,9,0,0,0-9,9v1C4,20.3,4,20.59,4,20.89Z"/></g></svg>