<svg xmlns="http://www.w3.org/2000/svg" viewBox="0 0 72 72"><defs><style>.cls-1,.cls-2{fill:none;stroke-miterlimit:10;}.cls-1{stroke:#b2b2b2;}.cls-2{stroke:#262626;stroke-linecap:round;}</style></defs><title>Members</title><g id="contents"><circle class="cls-1" cx="13.97" cy="24.27" r="6.76"/><path class="cls-1" d="M23.5,37.27a4.32,4.32,0,0,0-4.24-4.39H8.68a4.32,4.32,0,0,0-4.24,4.39v11H20.51"/><circle class="cls-1" cx="58.08" cy="24.27" r="6.76"/><path class="cls-1" d="M48.55,37.27a4.31,4.31,0,0,1,4.23-4.39H63.37a4.31,4.31,0,0,1,4.23,4.39v11H51.54"/><circle class="cls-2" cx="36" cy="22" r="11"/><path class="cls-2" d="M20.5,61h31V43.14A7,7,0,0,0,44.61,36H27.39a7,7,0,0,0-6.89,7.14V61"/></g></svg>