<svg xmlns="http://www.w3.org/2000/svg" viewBox="0 0 72 72"><defs><style>.cls-1,.cls-3{fill:#fff;}.cls-1{stroke:#262626;}.cls-1,.cls-2{stroke-linecap:round;}.cls-1,.cls-2,.cls-4,.cls-5{stroke-miterlimit:10;}.cls-2,.cls-4,.cls-5{fill:none;}.cls-2,.cls-4{stroke:#b2b2b2;}.cls-4{stroke-linecap:square;}.cls-5{stroke:#000;}</style></defs><title>Payment</title><g id="contents"><rect class="cls-1" x="11.28" y="6.5" width="42" height="59" rx="2.08"/><path d="M18.61,21.19V20a3.47,3.47,0,0,1-1.83-.53l.29-.8a3.24,3.24,0,0,0,1.72.51c.86,0,1.43-.49,1.43-1.17s-.47-1.07-1.35-1.43c-1.23-.48-2-1-2-2.08a2,2,0,0,1,1.81-1.93V11.34h.74v1.17a3.22,3.22,0,0,1,1.56.41l-.3.8a2.82,2.82,0,0,0-1.51-.41c-.92,0-1.27.55-1.27,1s.44.94,1.49,1.37c1.23.5,1.85,1.12,1.85,2.19a2.08,2.08,0,0,1-1.89,2v1.25Z"/><line class="cls-2" x1="17.28" y1="27.51" x2="47.28" y2="27.51"/><line class="cls-2" x1="17.28" y1="32.51" x2="47.28" y2="32.51"/><line class="cls-2" x1="17.28" y1="37.51" x2="47.28" y2="37.51"/><line class="cls-2" x1="17.28" y1="42.51" x2="47.28" y2="42.51"/><rect class="cls-3" x="38.26" y="46.71" width="22.46" height="14.79" rx="2"/><line class="cls-4" x1="38.26" y1="51.08" x2="60.72" y2="51.08"/><rect class="cls-5" x="38.26" y="46.71" width="22.46" height="14.79" rx="2"/><line class="cls-2" x1="21.97" y1="27.57" x2="21.97" y2="42.53"/><line class="cls-2" x1="27.91" y1="27.57" x2="27.91" y2="42.53"/></g></svg>