<svg xmlns="http://www.w3.org/2000/svg" viewBox="0 0 72 72"><defs><style>.cls-1{fill:#fff;}.cls-2{fill:#b2b2b2;}.cls-3{fill:#262626;}</style></defs><title>Artboard 2v copy</title><g id="bg"><rect class="cls-1" width="72" height="72"/></g><g id="contents"><path class="cls-2" d="M1.5,72a.5.5,0,0,1-.5-.5v-3a.5.5,0,0,1,1,0v3A.5.5,0,0,1,1.5,72Z"/><path class="cls-2" d="M4.5,72a.5.5,0,0,1-.5-.5v-3a.5.5,0,0,1,1,0v3A.5.5,0,0,1,4.5,72Z"/><path class="cls-2" d="M7.5,72a.5.5,0,0,1-.5-.5v-3a.5.5,0,0,1,1,0v3A.5.5,0,0,1,7.5,72Z"/><path class="cls-2" d="M10.5,72a.5.5,0,0,1-.5-.5v-3a.5.5,0,0,1,1,0v3A.5.5,0,0,1,10.5,72Z"/><path class="cls-2" d="M13.5,72a.5.5,0,0,1-.5-.5v-7a.5.5,0,0,1,1,0v7A.5.5,0,0,1,13.5,72Z"/><path class="cls-2" d="M16.5,72a.5.5,0,0,1-.5-.5v-3a.5.5,0,0,1,1,0v3A.5.5,0,0,1,16.5,72Z"/><path class="cls-2" d="M19.5,72a.5.5,0,0,1-.5-.5v-3a.5.5,0,0,1,1,0v3A.5.5,0,0,1,19.5,72Z"/><path class="cls-2" d="M22.5,72a.5.5,0,0,1-.5-.5v-3a.5.5,0,0,1,1,0v3A.5.5,0,0,1,22.5,72Z"/><path class="cls-2" d="M25.5,72a.5.5,0,0,1-.5-.5v-3a.5.5,0,0,1,1,0v3A.5.5,0,0,1,25.5,72Z"/><path class="cls-2" d="M28.5,72a.5.5,0,0,1-.5-.5v-7a.5.5,0,0,1,1,0v7A.5.5,0,0,1,28.5,72Z"/><path class="cls-2" d="M31.5,72a.5.5,0,0,1-.5-.5v-3a.5.5,0,0,1,1,0v3A.5.5,0,0,1,31.5,72Z"/><path class="cls-2" d="M34.5,72a.5.5,0,0,1-.5-.5v-3a.5.5,0,0,1,1,0v3A.5.5,0,0,1,34.5,72Z"/><path class="cls-2" d="M37.5,72a.5.5,0,0,1-.5-.5v-3a.5.5,0,0,1,1,0v3A.5.5,0,0,1,37.5,72Z"/><path class="cls-2" d="M40.5,72a.5.5,0,0,1-.5-.5v-3a.5.5,0,0,1,1,0v3A.5.5,0,0,1,40.5,72Z"/><path class="cls-2" d="M43.5,72a.5.5,0,0,1-.5-.5v-7a.5.5,0,0,1,1,0v7A.5.5,0,0,1,43.5,72Z"/><path class="cls-2" d="M46.5,72a.5.5,0,0,1-.5-.5v-3a.5.5,0,0,1,1,0v3A.5.5,0,0,1,46.5,72Z"/><path class="cls-2" d="M49.5,72a.5.5,0,0,1-.5-.5v-3a.5.5,0,0,1,1,0v3A.5.5,0,0,1,49.5,72Z"/><path class="cls-2" d="M52.5,72a.5.5,0,0,1-.5-.5v-3a.5.5,0,0,1,1,0v3A.5.5,0,0,1,52.5,72Z"/><path class="cls-2" d="M55.5,72a.5.5,0,0,1-.5-.5v-3a.5.5,0,0,1,1,0v3A.5.5,0,0,1,55.5,72Z"/><path class="cls-2" d="M58.5,72a.5.5,0,0,1-.5-.5v-3a.5.5,0,0,1,1,0v3A.5.5,0,0,1,58.5,72Z"/><path class="cls-2" d="M61.5,72a.5.5,0,0,1-.5-.5v-3a.5.5,0,0,1,1,0v3A.5.5,0,0,1,61.5,72Z"/><path class="cls-2" d="M64.5,72a.5.5,0,0,1-.5-.5v-3a.5.5,0,0,1,1,0v3A.5.5,0,0,1,64.5,72Z"/><path class="cls-2" d="M67.5,72a.5.5,0,0,1-.5-.5v-3a.5.5,0,0,1,1,0v3A.5.5,0,0,1,67.5,72Z"/><path class="cls-2" d="M70.5,72a.5.5,0,0,1-.5-.5v-3a.5.5,0,0,1,1,0v3A.5.5,0,0,1,70.5,72Z"/><path class="cls-3" d="M36,56.94A28,28,0,1,1,64,29,28,28,0,0,1,36,56.94ZM36,2A27,27,0,1,0,63,29,27,27,0,0,0,36,2Z"/><path class="cls-2" d="M37.44,53.42a.5.5,0,0,1,.46-.54h0a.49.49,0,0,1,.54.46h0a.49.49,0,0,1-.46.53h0A.49.49,0,0,1,37.44,53.42Zm-3.58.44h0a.5.5,0,0,1-.46-.54h0a.51.51,0,0,1,.54-.46h0a.51.51,0,0,1,.46.54h0a.49.49,0,0,1-.5.46h0Zm7.59-1a.51.51,0,0,1,.36-.61h0a.5.5,0,0,1,.61.37h0a.5.5,0,0,1-.37.6h0l-.12,0h0A.5.5,0,0,1,41.45,52.85Zm-11.66.32a.49.49,0,0,1-.36-.6h0a.5.5,0,0,1,.61-.36h0a.48.48,0,0,1,.36.6h0a.5.5,0,0,1-.49.38h0Zm15.52-1.54a.49.49,0,0,1,.26-.66h0a.5.5,0,0,1,.65.26h0a.5.5,0,0,1-.26.66h0a.45.45,0,0,1-.2,0h0A.49.49,0,0,1,45.31,51.63Zm-19.42.19a.49.49,0,0,1-.25-.66h0a.5.5,0,0,1,.66-.25h0a.5.5,0,0,1,.25.66h0a.49.49,0,0,1-.45.3h0A.54.54,0,0,1,25.89,51.82Zm23-2a.5.5,0,0,1,.14-.69h0a.51.51,0,0,1,.7.14h0a.51.51,0,0,1-.15.7h0a.45.45,0,0,1-.27.08h0A.48.48,0,0,1,48.91,49.79Zm-26.64.06a.5.5,0,0,1-.14-.69h0a.49.49,0,0,1,.69-.14h0a.49.49,0,0,1,.14.69h0a.49.49,0,0,1-.41.22h0A.48.48,0,0,1,22.27,49.85Zm29.89-2.47a.5.5,0,0,1,0-.71h0a.51.51,0,0,1,.71,0h0a.49.49,0,0,1,0,.7h0a.46.46,0,0,1-.33.13h0A.49.49,0,0,1,52.16,47.38ZM19,47.31a.5.5,0,0,1,0-.71h0a.5.5,0,0,1,.7,0h0a.5.5,0,0,1,0,.71h0a.49.49,0,0,1-.37.16h0A.46.46,0,0,1,19,47.31ZM55,44.47a.5.5,0,0,1-.09-.7h0a.5.5,0,0,1,.7-.08h0a.5.5,0,0,1,.09.7h0a.48.48,0,0,1-.39.19h0A.45.45,0,0,1,55,44.47Zm-38.73-.2a.49.49,0,0,1,.08-.7h0a.49.49,0,0,1,.7.09h0a.49.49,0,0,1-.08.7h0a.5.5,0,0,1-.31.1h0A.47.47,0,0,1,16.24,44.27Zm41-3.12a.49.49,0,0,1-.2-.68h0a.5.5,0,0,1,.68-.2h0a.49.49,0,0,1,.19.68h0a.51.51,0,0,1-.44.26h0A.46.46,0,0,1,57.27,41.15ZM14,40.81a.49.49,0,0,1,.21-.67h0a.48.48,0,0,1,.67.2h0a.49.49,0,0,1-.2.67h0a.43.43,0,0,1-.24.06h0A.49.49,0,0,1,14,40.81Zm45-3.32a.51.51,0,0,1-.31-.64h0a.51.51,0,0,1,.64-.31h0a.51.51,0,0,1,.31.64h0a.5.5,0,0,1-.47.34h0A.51.51,0,0,1,59,37.49ZM12.33,37h0a.49.49,0,0,1,.31-.63h0a.51.51,0,0,1,.64.31h0a.5.5,0,0,1-.31.63h0a.51.51,0,0,1-.17,0h0A.5.5,0,0,1,12.33,37Zm47.74-3.44a.49.49,0,0,1-.41-.57h0a.5.5,0,0,1,.58-.41h0a.5.5,0,0,1,.41.58h0a.51.51,0,0,1-.49.41h-.09ZM11.33,33h0a.51.51,0,0,1,.41-.58h0a.51.51,0,0,1,.58.42h0a.49.49,0,0,1-.41.57h-.08A.5.5,0,0,1,11.33,33Zm48.67-4V29h0V29h0a.5.5,0,0,1,.5-.5h0a.5.5,0,0,1,.5.5h0V29h0v.06h0a.5.5,0,0,1-.5.49h0A.5.5,0,0,1,60,29.07Zm-49-.15a.5.5,0,0,1,.5-.5h0a.5.5,0,0,1,.5.5h0a.5.5,0,0,1-.5.5h0A.5.5,0,0,1,11,28.92ZM59.68,25a.48.48,0,0,1,.41-.57h0a.49.49,0,0,1,.57.41h0a.51.51,0,0,1-.41.58h-.08A.49.49,0,0,1,59.68,25Zm-47.92.36a.48.48,0,0,1-.41-.57h0a.48.48,0,0,1,.57-.41h0a.49.49,0,0,1,.41.57h0a.49.49,0,0,1-.49.42h-.08Zm47-4.19a.5.5,0,0,1,.31-.64h0a.5.5,0,0,1,.63.31h0a.51.51,0,0,1-.31.64h0l-.16,0h0A.5.5,0,0,1,58.71,21.19Zm-46,.26a.51.51,0,0,1-.31-.64h0A.51.51,0,0,1,13,20.5h0a.51.51,0,0,1,.31.64h0a.51.51,0,0,1-.47.33h0Zm44.44-3.89h0a.51.51,0,0,1,.2-.68h0a.5.5,0,0,1,.68.2h0a.5.5,0,0,1-.2.68h0a.5.5,0,0,1-.24.06h0A.5.5,0,0,1,57.11,17.56Zm-42.88.16A.51.51,0,0,1,14,17h0a.51.51,0,0,1,.68-.2h0a.5.5,0,0,1,.2.68h0a.51.51,0,0,1-.44.26h0A.53.53,0,0,1,14.23,17.72Zm40.71-3.48h0a.51.51,0,0,1,.09-.71h0a.5.5,0,0,1,.7.09h0a.5.5,0,0,1-.09.7h0a.48.48,0,0,1-.3.11h0A.51.51,0,0,1,54.94,14.24Zm-38.56.06a.52.52,0,0,1-.08-.71h0a.5.5,0,0,1,.7-.08h0a.51.51,0,0,1,.09.7h0a.5.5,0,0,1-.4.19h0A.5.5,0,0,1,16.38,14.3Zm35.88-3a.49.49,0,0,1,0-.7h0a.5.5,0,0,1,.71,0h0a.5.5,0,0,1,0,.7h0a.5.5,0,0,1-.37.16h0A.5.5,0,0,1,52.26,11.33Zm-33.19-.06a.5.5,0,0,1,0-.71h0a.51.51,0,0,1,.71,0h0a.49.49,0,0,1,0,.7h0a.46.46,0,0,1-.33.13h0A.49.49,0,0,1,19.07,11.27ZM49.14,8.9h0A.49.49,0,0,1,49,8.21h0a.5.5,0,0,1,.69-.15h0a.5.5,0,0,1,.15.69h0a.51.51,0,0,1-.42.23h0A.5.5,0,0,1,49.14,8.9ZM22.21,8.73a.51.51,0,0,1,.15-.7h0a.5.5,0,0,1,.69.15h0a.5.5,0,0,1-.15.69h0a.43.43,0,0,1-.27.08h0A.52.52,0,0,1,22.21,8.73ZM45.66,7h0a.5.5,0,0,1-.26-.66h0a.49.49,0,0,1,.66-.25h0a.48.48,0,0,1,.25.65h0a.49.49,0,0,1-.45.3h0A.45.45,0,0,1,45.66,7ZM25.73,6.73A.5.5,0,0,1,26,6.07h0a.51.51,0,0,1,.66.26h0a.51.51,0,0,1-.26.66h0a.51.51,0,0,1-.2,0h0A.5.5,0,0,1,25.73,6.73Zm16.18-1a.49.49,0,0,1-.36-.6h0a.51.51,0,0,1,.61-.37h0a.51.51,0,0,1,.36.61h0a.5.5,0,0,1-.49.38h0ZM29.53,5.35a.51.51,0,0,1,.36-.61h0a.51.51,0,0,1,.61.36h0a.5.5,0,0,1-.36.61h0l-.12,0h0A.51.51,0,0,1,29.53,5.35ZM38,5.07a.5.5,0,0,1-.46-.54h0a.49.49,0,0,1,.54-.45h0a.5.5,0,0,1,.46.54h0a.5.5,0,0,1-.5.45h0Zm-4.5-.46A.5.5,0,0,1,34,4.07h0a.49.49,0,0,1,.53.46h0a.49.49,0,0,1-.45.54h0A.5.5,0,0,1,33.51,4.61Z"/><path class="cls-3" d="M58.5,69a.84.84,0,0,1-.79-.54l-2.1-3.19a.93.93,0,0,1-.11-.43v-5a.87.87,0,0,1,.85-.89h4.3a.87.87,0,0,1,.85.89v5a1,1,0,0,1-.06.35l-2.19,3.35A.8.8,0,0,1,58.5,69Zm-.12-1,0,0ZM56.5,64.8l2,3.06,2-3.06V60h-4ZM60.65,60h0Z"/><path class="cls-3" d="M37.69,49H33.33V45.41a35,35,0,0,1-8.48-1.54l-.43-.14L26,36.62l.54.19a26.19,26.19,0,0,0,6.82,1.53V31.91c-4.38-1.74-8.78-4.28-8.78-9.8s3.55-9,9.52-9.82V9h4.36v3.19a27.72,27.72,0,0,1,7,1.18l.43.14-1.45,7-.53-.16a27.37,27.37,0,0,0-5.46-1.07v5.85l.17.07c4.92,2,9,4.21,9,10.34,0,5.17-3.78,8.89-9.89,9.77Zm-3.36-1h2.36V44.36l.44,0c5.83-.7,9.45-4.09,9.45-8.84C46.58,30,43,28,38.24,26.06l-.81-.29V18.13l.53,0a29.36,29.36,0,0,1,5.7,1l1-5a27.83,27.83,0,0,0-6.79-1h-.48V10H35.07v3.21l-.45.05c-2.72.3-9.07,1.76-9.07,8.88,0,5,4,7.26,8.37,9l0,0h.36v8.31l-.52,0A26.15,26.15,0,0,1,26.71,38l-1.12,5.11a35.11,35.11,0,0,0,8.27,1.38l.47,0Zm2.36-8.74v-7l.74.39c1.29.69,2.61,1.62,2.61,3.29a3.07,3.07,0,0,1-2.73,3.16Zm1-5.29v4a1.94,1.94,0,0,0,1.35-2C39,35.27,38.79,34.67,37.69,33.94Zm-2.62-9.22-.72-.35c-1.2-.59-2.58-1.48-2.58-3.08s.91-2.53,2.69-2.93l.61-.14Zm-1-5.21a1.75,1.75,0,0,0-1.3,1.78c0,.68.4,1.23,1.3,1.79Z"/></g></svg>