<?xml version="1.0" encoding="utf-8"?>
<!-- Generator: Adobe Illustrator 23.0.3, SVG Export Plug-In . SVG Version: 6.00 Build 0)  -->
<svg version="1.1" id="レイヤー_1" xmlns="http://www.w3.org/2000/svg" xmlns:xlink="http://www.w3.org/1999/xlink" x="0px"
	 y="0px" viewBox="0 0 48 48" style="enable-background:new 0 0 48 48;" xml:space="preserve">
<style type="text/css">
	.st0{display:none;}
	.st1{display:inline;}
	.st2{fill:#262626;}
</style>
<g class="st0">
	<title>Download</title>
	<g id="Sketch" class="st1">
		<path class="st2" d="M24,35L9,20l2.1-2.1l11.4,11.4V6h3v23.3l11.4-11.4L39,20L24,35z M9,42h30v-3H9V42z"/>
	</g>
	<path class="st1" d="M32.8,6c-3.4,0-6.7,1.6-8.8,4.1C21.9,7.6,18.6,6,15.2,6c-6,0-10.8,4.7-10.8,10.8c0,7.4,6.7,13.5,16.8,22.6
		L24,42l2.8-2.6c10.1-9.2,16.8-15.2,16.8-22.6C43.6,10.7,38.9,6,32.8,6z M24.2,36.5L24,36.7l-0.2-0.2C14.5,28,8.3,22.5,8.3,16.8
		c0-3.9,2.9-6.9,6.9-6.9c3,0,6,1.9,7,4.6h3.7c1-2.7,4-4.6,7-4.6c3.9,0,6.9,2.9,6.9,6.9C39.7,22.5,33.5,28.1,24.2,36.5z"/>
</g>
<g>
	<g>
		<path class="st2" d="M13.6,11L4,24l9.6,13H44V11H13.6z M41,34H15.1L7.7,24l7.4-10H41V34z"/>
	</g>
	<g>
		<circle class="st2" cx="16" cy="24" r="2"/>
	</g>
</g>
</svg>
