<?xml version="1.0" encoding="UTF-8"?>
<svg width="264px" height="45px" viewBox="0 0 264 45" version="1.1" xmlns="http://www.w3.org/2000/svg" xmlns:xlink="http://www.w3.org/1999/xlink">
    <!-- Generator: Sketch 52.6 (67491) - http://www.bohemiancoding.com/sketch -->
    <title>Assets / Asset_Title </title>
    <desc>Created with Sketch.</desc>
    <defs>
        <polygon id="path-1" points="0 44.4078947 263.7138 44.4078947 263.7138 0.0130263158 0 0.0130263158"></polygon>
    </defs>
    <g id="Assets-/-Asset_Title-" stroke="none" stroke-width="1" fill="none" fill-rule="evenodd">
        <g id="Group-27">
            <polygon id="Fill-1" fill="#595757" points="23.7486457 27.8231105 23.7919256 27.8231105 23.7919256 15 25 15 25 29 23.046131 29 15.2513543 16.1376785 15.2080744 16.1376785 15.2080744 29 14 29 14 15 15.9758225 15"></polygon>
            <g id="Group-26">
                <path d="M37.2342,23.3293026 C37.2342,21.00825 36.0786,19.3918026 33.8316,19.3918026 C31.353,19.3918026 30.261,21.3605526 30.135,23.4335132 L37.2342,23.4335132 L37.2342,23.3293026 Z M38.3466,24.4069342 L30.135,24.4069342 C30.198,26.8529211 31.626,28.8838421 34.4826,28.8838421 C35.5116,28.8838421 36.6246,28.6973289 37.4226,28.36575 L37.6332,29.3190395 C36.7716,29.6512105 35.5536,29.8578553 34.4406,29.8578553 C30.807,29.8578553 28.959,27.3710132 28.959,24.0552237 C28.959,20.9875263 30.66,18.4171974 33.8316,18.4171974 C36.9816,18.4171974 38.3466,20.6145 38.3466,23.7437763 L38.3466,24.4069342 Z" id="Fill-2" fill="#595757"></path>
                <path d="M49.06308,29.6094671 L49.06308,27.7443355 L49.02168,27.7443355 C48.37068,29.091375 46.96308,29.8581513 45.38808,29.8581513 C42.84708,29.8581513 41.46048,28.2411118 41.46048,25.8371645 L41.46048,18.6667697 L42.65748,18.6667697 L42.65748,25.4232829 C42.65748,27.4956513 43.41408,28.8835461 45.64008,28.8835461 C47.38308,28.8835461 49.02168,27.7443355 49.02168,25.0496645 L49.02168,18.6667697 L50.21868,18.6667697 L50.21868,29.6094671 L49.06308,29.6094671 Z" id="Fill-4" fill="#595757"></path>
                <path d="M59.21388,19.4540329 C58.96188,19.4125855 58.66788,19.3918618 58.35228,19.3918618 C56.65128,19.3918618 55.43328,20.6554145 55.43328,23.1842961 L55.43328,29.6092303 L54.23628,29.6092303 L54.23628,18.6665329 L55.39128,18.6665329 L55.39128,20.5109408 L55.43328,20.5109408 C55.89588,19.2047566 57.02928,18.4172566 58.47828,18.4172566 C58.73028,18.4172566 59.00328,18.4172566 59.27628,18.4587039 L59.21388,19.4540329 Z" id="Fill-6" fill="#595757"></path>
                <path d="M67.69182,23.8473947 C64.66722,23.8473947 62.06322,24.3453553 62.06322,26.5627895 C62.06322,27.9518684 62.90382,28.8838421 64.49982,28.8838421 C67.08222,28.8838421 68.21682,26.9358158 68.21682,24.8841711 L68.21682,23.8473947 L67.69182,23.8473947 Z M68.21682,22.4381842 C68.21682,20.3450921 67.20882,19.3918026 65.19282,19.3918026 C64.28922,19.3918026 63.21822,19.5984474 62.29422,20.0129211 L62.02122,19.0187763 C62.88222,18.6866053 64.10082,18.4171974 65.25522,18.4171974 C67.92282,18.4171974 69.41382,19.6819342 69.41382,22.3345658 L69.41382,26.9772632 C69.41382,27.7440395 69.47742,28.8429868 69.62442,29.6091711 L68.53182,29.6091711 C68.40582,29.0087763 68.34282,28.1585132 68.32182,27.5160789 L68.27982,27.5160789 C67.73382,28.8009474 66.49482,29.8578553 64.41522,29.8578553 C62.56722,29.8578553 60.90762,28.8429868 60.90762,26.6249605 C60.90762,23.6194342 64.03722,22.9562763 68.21682,22.9562763 L68.21682,22.4381842 Z" id="Fill-8" fill="#595757"></path>
                <mask id="mask-2" fill="white">
                    <use xlink:href="#path-1"></use>
                </mask>
                <g id="Clip-11"></g>
                <polygon id="Fill-10" fill="#595757" mask="url(#mask-2)" points="73.7742 29.6094079 74.9712 29.6094079 74.9712 14.3757237 73.7742 14.3757237"></polygon>
                <polygon id="Fill-12" fill="#595757" mask="url(#mask-2)" points="94.19496 28.3656908 94.23636 28.3656908 94.23636 14.8112171 95.39196 14.8112171 95.39196 29.6097039 93.52296 29.6097039 86.06676 16.0137829 86.02536 16.0137829 86.02536 29.6097039 84.86976 29.6097039 84.86976 14.8112171 86.75976 14.8112171"></polygon>
                <path d="M107.11134,23.3293026 C107.11134,21.00825 105.95574,19.3918026 103.70874,19.3918026 C101.23014,19.3918026 100.13814,21.3605526 100.01214,23.4335132 L107.11134,23.4335132 L107.11134,23.3293026 Z M108.22374,24.4069342 L100.01214,24.4069342 C100.07514,26.8529211 101.50314,28.8838421 104.35974,28.8838421 C105.38874,28.8838421 106.50174,28.6973289 107.29974,28.36575 L107.51034,29.3190395 C106.64874,29.6512105 105.43074,29.8578553 104.31774,29.8578553 C100.68414,29.8578553 98.83614,27.3710132 98.83614,24.0552237 C98.83614,20.9875263 100.53714,18.4171974 103.70874,18.4171974 C106.85874,18.4171974 108.22374,20.6145 108.22374,23.7437763 L108.22374,24.4069342 Z" id="Fill-13" fill="#595757" mask="url(#mask-2)"></path>
                <path d="M109.9578,18.6664737 L112.0374,18.6664737 L112.0374,15.9718026 L113.2344,15.9718026 L113.2344,18.6664737 L115.9224,18.6664737 L115.9224,19.6404868 L113.2344,19.6404868 L113.2344,26.9358158 C113.2344,28.4486447 113.5494,28.7802237 114.8094,28.7802237 C115.2714,28.7802237 115.6074,28.7595 115.986,28.6973289 L115.986,29.6091711 C115.6284,29.6719342 115.062,29.7548289 114.516,29.7548289 C112.6044,29.7548289 112.0374,28.9252895 112.0374,27.0187105 L112.0374,19.6404868 L109.9578,19.6404868 L109.9578,18.6664737 Z" id="Fill-14" fill="#595757" mask="url(#mask-2)"></path>
                <polygon id="Fill-15" fill="#595757" mask="url(#mask-2)" points="125.49804 19.681875 125.45604 19.681875 122.66244 29.6097039 121.06644 29.6097039 117.78984 18.6664145 119.09244 18.6664145 121.86444 28.5735197 121.90704 28.5735197 124.63644 18.6664145 126.31704 18.6664145 129.06804 28.5735197 129.11064 28.5735197 131.86164 18.6664145 133.14264 18.6664145 129.84564 29.6097039 128.24904 29.6097039"></polygon>
                <path d="M140.14182,19.3915658 C137.55822,19.3915658 136.34022,21.4230789 136.34022,24.1165658 C136.34022,26.8112368 137.57922,28.8836053 140.14182,28.8836053 C142.72542,28.8836053 143.92242,26.8112368 143.92242,24.1165658 C143.92242,21.4230789 142.72542,19.3915658 140.14182,19.3915658 M140.14182,29.8582105 C136.99122,29.8582105 135.14322,27.5987368 135.14322,24.1165658 C135.14322,20.6355789 136.99122,18.4169605 140.14182,18.4169605 C143.27082,18.4169605 145.11942,20.6355789 145.11942,24.1165658 C145.11942,27.5987368 143.27082,29.8582105 140.14182,29.8582105" id="Fill-16" fill="#595757" mask="url(#mask-2)"></path>
                <path d="M153.03654,19.4540329 C152.78454,19.4125855 152.49054,19.3918618 152.17494,19.3918618 C150.47394,19.3918618 149.25594,20.6554145 149.25594,23.1842961 L149.25594,29.6092303 L148.05894,29.6092303 L148.05894,18.6665329 L149.21394,18.6665329 L149.21394,20.5109408 L149.25594,20.5109408 C149.71854,19.2047566 150.85194,18.4172566 152.30094,18.4172566 C152.55294,18.4172566 152.82594,18.4172566 153.09894,18.4587039 L153.03654,19.4540329 Z" id="Fill-17" fill="#595757" mask="url(#mask-2)"></path>
                <polygon id="Fill-18" fill="#595757" mask="url(#mask-2)" points="163.24302 18.6664737 157.95042 23.5779868 163.49502 29.6091711 161.89902 29.6091711 156.69042 23.8473947 156.64842 23.8473947 156.64842 29.6091711 155.45142 29.6091711 155.45142 14.3760789 156.64842 14.3760789 156.64842 23.4127895 156.69042 23.4127895 161.66802 18.6664737"></polygon>
                <path d="M180.14262,17.0387763 C179.36562,16.66575 178.37862,16.4591053 177.37062,16.4591053 C173.86302,16.4591053 172.18242,19.0495658 172.18242,22.1995658 C172.18242,25.1843684 173.92602,27.8162763 177.34962,27.8162763 C178.54662,27.8162763 179.47062,27.5883158 180.31062,27.1738421 L180.83562,29.0602895 C179.76462,29.5783816 178.44162,29.7850263 177.11862,29.7850263 C172.56042,29.7850263 169.72602,26.6350263 169.72602,22.1788421 C169.72602,17.7226579 172.43442,14.4891711 177.22362,14.4891711 C178.52562,14.4891711 179.78562,14.697 180.70962,15.1321974 L180.14262,17.0387763 Z" id="Fill-19" fill="#595757" mask="url(#mask-2)"></path>
                <path d="M188.235,20.1479211 C186.1764,20.1479211 185.2314,21.7643684 185.2314,24.0439737 C185.2314,26.3863421 186.219,27.9820658 188.235,27.9820658 C190.2936,27.9820658 191.2386,26.3863421 191.2386,24.0439737 C191.2386,21.7643684 190.2936,20.1479211 188.235,20.1479211 M188.235,29.7850263 C184.9374,29.7850263 182.8374,27.6096316 182.8374,24.0439737 C182.8374,20.4795 184.9374,18.3443684 188.235,18.3443684 C191.553,18.3443684 193.6326,20.4795 193.6326,24.0439737 C193.6326,27.6096316 191.532,29.7850263 188.235,29.7850263" id="Fill-20" fill="#595757" mask="url(#mask-2)"></path>
                <path d="M198.89142,18.5936447 L198.89142,20.1271974 L198.93282,20.1271974 C199.54242,18.9873947 200.86542,18.3443684 202.35642,18.3443684 C204.85542,18.3443684 206.38902,19.9199605 206.38902,22.3239079 L206.38902,29.5363421 L203.99502,29.5363421 L203.99502,23.2156184 C203.99502,21.3084474 203.49102,20.1479211 201.66342,20.1479211 C200.34042,20.1479211 198.95382,21.0804868 198.95382,23.4850263 L198.95382,29.5363421 L196.55982,29.5363421 L196.55982,18.5936447 L198.89142,18.5936447 Z" id="Fill-21" fill="#595757" mask="url(#mask-2)"></path>
                <path d="M216.18948,20.7278882 C215.18148,20.2932829 214.19448,20.1482171 213.31248,20.1482171 C212.40888,20.1482171 211.50588,20.4792039 211.50588,21.3709145 C211.50588,22.1376908 212.03088,22.4899934 213.73188,23.0702566 C215.95848,23.8163092 217.30248,24.6872961 217.30248,26.5725592 C217.30248,28.9770987 215.07648,29.7853224 212.97648,29.7853224 C211.73688,29.7853224 210.18288,29.5159145 209.02728,29.0185461 L209.55288,27.1948618 C210.75048,27.7129539 212.09448,27.9823618 212.99748,27.9823618 C214.19448,27.9823618 215.03448,27.6501908 215.03448,26.6969013 C215.03448,25.8685461 214.25748,25.4534803 212.51448,24.8732171 C210.30888,24.1271645 209.23788,23.1324276 209.23788,21.598875 C209.23788,19.3394013 211.29648,18.3446645 213.33288,18.3446645 C214.48848,18.3446645 215.76948,18.5519013 216.73548,18.966375 L216.18948,20.7278882 Z" id="Fill-22" fill="#595757" mask="url(#mask-2)"></path>
                <path d="M224.99028,20.1479211 C222.93168,20.1479211 221.98668,21.7643684 221.98668,24.0439737 C221.98668,26.3863421 222.97428,27.9820658 224.99028,27.9820658 C227.04888,27.9820658 227.99388,26.3863421 227.99388,24.0439737 C227.99388,21.7643684 227.04888,20.1479211 224.99028,20.1479211 M224.99028,29.7850263 C221.69268,29.7850263 219.59268,27.6096316 219.59268,24.0439737 C219.59268,20.4795 221.69268,18.3443684 224.99028,18.3443684 C228.30828,18.3443684 230.38788,20.4795 230.38788,24.0439737 C230.38788,27.6096316 228.28728,29.7850263 224.99028,29.7850263" id="Fill-23" fill="#595757" mask="url(#mask-2)"></path>
                <polygon id="Fill-24" fill="#595757" mask="url(#mask-2)" points="233.3154 29.5365789 235.7094 29.5365789 235.7094 14.3028947 233.3154 14.3028947"></polygon>
                <path d="M240.96876,23.0078487 L246.49236,23.0078487 L246.49236,22.9669934 C246.51276,21.1634408 245.46276,20.0443618 243.90876,20.0443618 C242.20716,20.0443618 241.15716,21.2670592 240.96876,23.0078487 Z M240.96876,24.7486382 C241.11576,26.8423224 242.62776,27.982125 244.76976,27.982125 C245.69436,27.982125 246.74436,27.8370592 247.58376,27.5262039 L247.89936,29.2877171 C246.93276,29.6192961 245.79936,29.7850855 244.55976,29.7850855 C240.73716,29.7850855 238.61616,27.4018618 238.61616,24.0854803 C238.61616,20.7696908 240.63216,18.3444276 243.90876,18.3444276 C247.08036,18.3444276 248.71836,20.4582434 248.71836,23.7337697 L248.71836,24.7486382 L240.96876,24.7486382 Z" id="Fill-25" fill="#595757" mask="url(#mask-2)"></path>
            </g>
        </g>
    </g>
</svg>