<svg xmlns="http://www.w3.org/2000/svg" viewBox="0 0 48 48"><defs><style>.cls-1{fill:#fff;}</style></defs><title>Users</title><g id="Sketch"><path class="cls-1" d="M29.17,32.37l.4-.31.25-.19c.23-.2.46-.42.68-.64a9,9,0,0,0,2.37-4.7A9.06,9.06,0,0,0,33,24.81a8.92,8.92,0,0,0-.43-2.56,9.08,9.08,0,0,0-.69-1.61,8.5,8.5,0,0,0-.47-.75,9.65,9.65,0,0,0-1.18-1.39l0,0a7.09,7.09,0,0,0-.66-.57c-.08-.07-.17-.12-.25-.18l-.48-.34-.32-.18L28.05,17l-.35-.16-.45-.19-.37-.13-.45-.14c-.12,0-.25-.06-.38-.09a3.63,3.63,0,0,0-.45-.1l-.39-.06L24.75,16h-.39L24,16h-.09l-.47,0-.41,0a3.81,3.81,0,0,0-.47.07c-.13,0-.26,0-.39.06s-.32.08-.47.12l-.39.1-.46.17a2.79,2.79,0,0,0-.37.14c-.15.06-.3.14-.46.22l-.34.16c-.16.09-.31.19-.46.29l-.31.19c-.17.11-.32.24-.48.36l-.25.19c-.23.2-.46.42-.68.64a9,9,0,0,0,.27,12.73c.23.21.46.41.69.59a1.77,1.77,0,0,0,.24.17l.14.1A12.22,12.22,0,0,0,10.5,44h3a9.12,9.12,0,0,1,9-9.22v-4a6,6,0,1,1,3,0v4a9.12,9.12,0,0,1,9,9.22h3A12.2,12.2,0,0,0,29.17,32.37Z"/><path class="cls-1" d="M40.35,16.48a7,7,0,1,0-5.85,1.35V14.7a4,4,0,1,1,3,0V19a6.51,6.51,0,0,1,6.5,6.5h3A9.51,9.51,0,0,0,40.35,16.48Z"/><path class="cls-1" d="M7.65,16.48a7,7,0,1,1,5.85,1.35V14.7a4,4,0,1,0-3,0V19A6.51,6.51,0,0,0,4,25.54H1A9.51,9.51,0,0,1,7.65,16.48Z"/></g></svg>