<svg xmlns="http://www.w3.org/2000/svg" viewBox="0 0 72 72"><defs><style>.cls-1{fill:#fff;}.cls-2{fill:#262626;}.cls-3{fill:#b2b2b2;}</style></defs><title>Artboard 2 copy 2</title><g id="bg"><rect class="cls-1" width="72" height="72"/></g><g id="contents"><path class="cls-2" d="M8.5,45.94a.5.5,0,0,1-.5-.5V12.93a.5.5,0,0,1,1,0V45.44A.5.5,0,0,1,8.5,45.94Z"/><path class="cls-3" d="M36,22.38c-15.7,0-28-4.15-28-9.45S20.3,3.48,36,3.48s28,4.15,28,9.45S51.7,22.38,36,22.38Zm0-17.9c-14.64,0-27,3.87-27,8.45s12.36,8.45,27,8.45,27-3.87,27-8.45S50.64,4.48,36,4.48Z"/><path class="cls-3" d="M36,32.47C20.3,32.47,8,28.32,8,23H9c0,4.58,12.36,8.45,27,8.45S63,27.6,63,23h1C64,28.32,51.7,32.47,36,32.47Z"/><path class="cls-3" d="M36,43.4C20.3,43.4,8,39.25,8,34H9c0,4.58,12.36,8.45,27,8.45S63,38.53,63,34h1C64,39.25,51.7,43.4,36,43.4Z"/><path class="cls-2" d="M63.5,45.94a.5.5,0,0,1-.5-.5V12.93a.5.5,0,0,1,1,0V45.44A.5.5,0,0,1,63.5,45.94Z"/><path class="cls-2" d="M36,54.33c-15.7,0-28-4.15-28-9.45a.5.5,0,0,1,1,0c0,4.58,12.36,8.45,27,8.45s27-3.87,27-8.45a.5.5,0,1,1,1,0C64,50.18,51.7,54.33,36,54.33Z"/><path class="cls-3" d="M36,54.46C20.3,54.46,8,50.31,8,45v-32c0-5.3,12.3-9.45,28-9.45s28,4.15,28,9.45V45C64,50.31,51.7,54.46,36,54.46ZM36,4.61c-14.64,0-27,3.87-27,8.45V45c0,4.58,12.36,8.44,27,8.44S63,49.6,63,45v-32C63,8.48,50.64,4.61,36,4.61Z"/><path class="cls-3" d="M35.26,28.67h0c-7.89-.07-15.43-1.23-20.7-3.2a1.23,1.23,0,0,1-.8-1.12l0-1.58a1.21,1.21,0,0,1,.52-1,1.25,1.25,0,0,1,1.17-.14c4.84,1.94,12.09,3.09,19.87,3.16A1.24,1.24,0,0,1,36.5,26v1.46a1.25,1.25,0,0,1-1.24,1.23ZM14.94,22.5a.2.2,0,0,0-.13.05.21.21,0,0,0-.1.19l0,1.58a.24.24,0,0,0,.15.22h0c5.16,1.92,12.58,3.07,20.36,3.13h0a.23.23,0,0,0,.17-.07.2.2,0,0,0,.07-.16V26a.23.23,0,0,0-.24-.23C27.36,25.68,20,24.5,15,22.52Z"/><path class="cls-3" d="M55.94,26.39a2.51,2.51,0,1,1,2.53-2.51A2.52,2.52,0,0,1,55.94,26.39Zm0-4a1.51,1.51,0,1,0,1.53,1.5A1.52,1.52,0,0,0,55.94,22.38Z"/><path class="cls-3" d="M35.26,50.53h0c-7.88-.07-15.43-1.24-20.7-3.2a1.25,1.25,0,0,1-.8-1.12l0-1.59a1.22,1.22,0,0,1,.53-1,1.2,1.2,0,0,1,1.16-.13c4.84,1.94,12.09,3.09,19.87,3.16a1.23,1.23,0,0,1,1.23,1.22v1.46a1.25,1.25,0,0,1-1.24,1.24ZM14.94,44.36a.2.2,0,0,0-.13,0,.24.24,0,0,0-.1.2l0,1.58a.22.22,0,0,0,.15.21h0c5.17,1.93,12.59,3.07,20.36,3.14.09,0,.14-.05.17-.07a.23.23,0,0,0,.07-.17V47.83a.23.23,0,0,0-.24-.22C27.36,47.54,20,46.36,15,44.38A.15.15,0,0,0,14.94,44.36Z"/><path class="cls-3" d="M55.94,48.25a2.51,2.51,0,1,1,2.53-2.51A2.53,2.53,0,0,1,55.94,48.25Zm0-4a1.51,1.51,0,1,0,1.53,1.51A1.53,1.53,0,0,0,55.94,44.23Z"/><path class="cls-3" d="M35.26,39.6h0c-7.89-.07-15.43-1.23-20.7-3.2h0a1.25,1.25,0,0,1-.8-1.12l0-1.58a1.24,1.24,0,0,1,.52-1.05,1.28,1.28,0,0,1,1.17-.13c4.84,1.94,12.09,3.09,19.87,3.16a1.24,1.24,0,0,1,1.23,1.23v1.46a1.23,1.23,0,0,1-.36.87A1.27,1.27,0,0,1,35.26,39.6ZM14.94,33.43a.28.28,0,0,0-.13,0,.24.24,0,0,0-.1.2l0,1.58a.22.22,0,0,0,.15.21h0c5.16,1.93,12.58,3.07,20.36,3.14h0a.23.23,0,0,0,.17-.07.22.22,0,0,0,.07-.16V36.91a.23.23,0,0,0-.24-.23C27.36,36.61,20,35.43,15,33.45Z"/><path class="cls-3" d="M55.94,37.32a2.51,2.51,0,1,1,2.53-2.51A2.52,2.52,0,0,1,55.94,37.32Zm0-4a1.51,1.51,0,1,0,1.53,1.51A1.53,1.53,0,0,0,55.94,33.3Z"/><path class="cls-2" d="M36,54.46C20.3,54.46,8,50.31,8,45v-32c0-5.3,12.3-9.45,28-9.45s28,4.15,28,9.45V45C64,50.31,51.7,54.46,36,54.46ZM36,4.61c-14.64,0-27,3.87-27,8.45V45c0,4.58,12.36,8.44,27,8.44S63,49.6,63,45v-32C63,8.48,50.64,4.61,36,4.61Z"/><path class="cls-3" d="M1.5,72a.5.5,0,0,1-.5-.5v-3a.5.5,0,0,1,1,0v3A.5.5,0,0,1,1.5,72Z"/><path class="cls-3" d="M4.5,72a.5.5,0,0,1-.5-.5v-3a.5.5,0,0,1,1,0v3A.5.5,0,0,1,4.5,72Z"/><path class="cls-3" d="M7.5,72a.5.5,0,0,1-.5-.5v-3a.5.5,0,0,1,1,0v3A.5.5,0,0,1,7.5,72Z"/><path class="cls-3" d="M10.5,72a.5.5,0,0,1-.5-.5v-3a.5.5,0,0,1,1,0v3A.5.5,0,0,1,10.5,72Z"/><path class="cls-3" d="M13.5,72a.5.5,0,0,1-.5-.5v-7a.5.5,0,0,1,1,0v7A.5.5,0,0,1,13.5,72Z"/><path class="cls-3" d="M16.5,72a.5.5,0,0,1-.5-.5v-3a.5.5,0,0,1,1,0v3A.5.5,0,0,1,16.5,72Z"/><path class="cls-3" d="M19.5,72a.5.5,0,0,1-.5-.5v-3a.5.5,0,0,1,1,0v3A.5.5,0,0,1,19.5,72Z"/><path class="cls-3" d="M22.5,72a.5.5,0,0,1-.5-.5v-3a.5.5,0,0,1,1,0v3A.5.5,0,0,1,22.5,72Z"/><path class="cls-3" d="M25.5,72a.5.5,0,0,1-.5-.5v-3a.5.5,0,0,1,1,0v3A.5.5,0,0,1,25.5,72Z"/><path class="cls-3" d="M28.5,72a.5.5,0,0,1-.5-.5v-7a.5.5,0,0,1,1,0v7A.5.5,0,0,1,28.5,72Z"/><path class="cls-3" d="M31.5,72a.5.5,0,0,1-.5-.5v-3a.5.5,0,0,1,1,0v3A.5.5,0,0,1,31.5,72Z"/><path class="cls-3" d="M34.5,72a.5.5,0,0,1-.5-.5v-3a.5.5,0,0,1,1,0v3A.5.5,0,0,1,34.5,72Z"/><path class="cls-3" d="M37.5,72a.5.5,0,0,1-.5-.5v-3a.5.5,0,0,1,1,0v3A.5.5,0,0,1,37.5,72Z"/><path class="cls-3" d="M40.5,72a.5.5,0,0,1-.5-.5v-3a.5.5,0,0,1,1,0v3A.5.5,0,0,1,40.5,72Z"/><path class="cls-3" d="M43.5,72a.5.5,0,0,1-.5-.5v-7a.5.5,0,0,1,1,0v7A.5.5,0,0,1,43.5,72Z"/><path class="cls-3" d="M46.5,72a.5.5,0,0,1-.5-.5v-3a.5.5,0,0,1,1,0v3A.5.5,0,0,1,46.5,72Z"/><path class="cls-3" d="M49.5,72a.5.5,0,0,1-.5-.5v-3a.5.5,0,0,1,1,0v3A.5.5,0,0,1,49.5,72Z"/><path class="cls-3" d="M52.5,72a.5.5,0,0,1-.5-.5v-3a.5.5,0,0,1,1,0v3A.5.5,0,0,1,52.5,72Z"/><path class="cls-3" d="M55.5,72a.5.5,0,0,1-.5-.5v-3a.5.5,0,0,1,1,0v3A.5.5,0,0,1,55.5,72Z"/><path class="cls-3" d="M58.5,72a.5.5,0,0,1-.5-.5v-3a.5.5,0,0,1,1,0v3A.5.5,0,0,1,58.5,72Z"/><path class="cls-3" d="M61.5,72a.5.5,0,0,1-.5-.5v-3a.5.5,0,0,1,1,0v3A.5.5,0,0,1,61.5,72Z"/><path class="cls-3" d="M64.5,72a.5.5,0,0,1-.5-.5v-3a.5.5,0,0,1,1,0v3A.5.5,0,0,1,64.5,72Z"/><path class="cls-3" d="M67.5,72a.5.5,0,0,1-.5-.5v-3a.5.5,0,0,1,1,0v3A.5.5,0,0,1,67.5,72Z"/><path class="cls-3" d="M70.5,72a.5.5,0,0,1-.5-.5v-3a.5.5,0,0,1,1,0v3A.5.5,0,0,1,70.5,72Z"/><path class="cls-2" d="M58.5,69a.84.84,0,0,1-.79-.54l-2.1-3.19a.93.93,0,0,1-.11-.43v-5a.87.87,0,0,1,.85-.89h4.3a.87.87,0,0,1,.85.89v5a.93.93,0,0,1-.06.34l-2.19,3.36A.8.8,0,0,1,58.5,69Zm-.12-1,0,0ZM56.5,64.8l2,3.06,2-3.06V60h-4ZM60.65,60h0Z"/></g></svg>