<svg xmlns="http://www.w3.org/2000/svg" viewBox="0 0 72 72"><defs><style>.cls-1{fill:#fff;}.cls-2{fill:#262626;}.cls-3{fill:#b2b2b2;}</style></defs><title>Artboard 2 copy</title><g id="bg"><rect class="cls-1" width="72" height="72"/></g><g id="contents"><path class="cls-2" d="M4.5,56.41a.5.5,0,0,1-.5-.5V18.58a.5.5,0,0,1,1,0V55.91A.5.5,0,0,1,4.5,56.41Z"/><path class="cls-3" d="M36,29.35c-17.94,0-32-4.73-32-10.77S18.06,7.8,36,7.8s32,4.73,32,10.78S53.94,29.35,36,29.35ZM36,8.8c-16.8,0-31,4.48-31,9.78s14.2,9.77,31,9.77,31-4.47,31-9.77S52.8,8.8,36,8.8Z"/><path class="cls-3" d="M36,41C18.06,41,4,36.21,4,30.17H5C5,35.47,19.2,40,36,40s31-4.48,31-9.78h1C68,36.21,53.94,41,36,41Z"/><path class="cls-3" d="M36,53.5c-17.94,0-32-4.74-32-10.78H5C5,48,19.2,52.5,36,52.5S67,48,67,42.72h1C68,48.76,53.94,53.5,36,53.5Z"/><path class="cls-2" d="M67.5,56.41a.5.5,0,0,1-.5-.5V18.58a.5.5,0,0,1,1,0V55.91A.5.5,0,0,1,67.5,56.41Z"/><path class="cls-2" d="M36,66.05c-17.94,0-32-4.74-32-10.78a.5.5,0,0,1,1,0c0,5.3,14.2,9.78,31,9.78s31-4.48,31-9.78a.5.5,0,0,1,1,0C68,61.31,53.94,66.05,36,66.05Z"/><path class="cls-3" d="M36,66.2c-17.94,0-32-4.73-32-10.78V18.73C4,12.69,18.06,8,36,8s32,4.74,32,10.78V55.42C68,61.47,53.94,66.2,36,66.2ZM36,9C19.2,9,5,13.43,5,18.73V55.42c0,5.3,14.2,9.78,31,9.78s31-4.48,31-9.78V18.73C67,13.43,52.8,9,36,9Z"/><path class="cls-3" d="M35.15,36.58h0c-9-.08-17.66-1.41-23.69-3.67h0a1.32,1.32,0,0,1-.86-1.22l-.05-1.81a1.33,1.33,0,0,1,1.84-1.28c5.55,2.23,13.86,3.55,22.79,3.63a1.34,1.34,0,0,1,1.33,1.33v1.68a1.35,1.35,0,0,1-1.35,1.34ZM11.88,29.5a.36.36,0,0,0-.2.06.33.33,0,0,0-.14.29l.05,1.82a.34.34,0,0,0,.21.31h0c5.93,2.21,14.44,3.53,23.35,3.6a.36.36,0,0,0,.25-.1.35.35,0,0,0,.1-.24V33.56a.34.34,0,0,0-.34-.33c-9-.08-17.49-1.43-23.16-3.7A.27.27,0,0,0,11.88,29.5Z"/><path class="cls-3" d="M58.84,34a2.81,2.81,0,1,1,2.83-2.81A2.81,2.81,0,0,1,58.84,34Zm0-4.62a1.81,1.81,0,1,0,1.83,1.81A1.81,1.81,0,0,0,58.84,29.35Z"/><path class="cls-3" d="M35.15,61.68h0c-9-.08-17.66-1.42-23.69-3.67a1.32,1.32,0,0,1-.86-1.22L10.54,55a1.34,1.34,0,0,1,.57-1.13,1.37,1.37,0,0,1,1.27-.15c5.55,2.23,13.86,3.56,22.79,3.64a1.34,1.34,0,0,1,1.33,1.33v1.68a1.31,1.31,0,0,1-.4.95A1.34,1.34,0,0,1,35.15,61.68ZM11.88,54.6a.36.36,0,0,0-.2.06.33.33,0,0,0-.14.29l.05,1.81a.34.34,0,0,0,.21.31h0c5.93,2.22,14.44,3.53,23.35,3.61a.3.3,0,0,0,.25-.1.35.35,0,0,0,.1-.24V58.66a.34.34,0,0,0-.34-.33c-9-.08-17.49-1.43-23.16-3.71A.25.25,0,0,0,11.88,54.6Z"/><path class="cls-3" d="M58.84,59.06a2.81,2.81,0,1,1,2.83-2.8A2.81,2.81,0,0,1,58.84,59.06Zm0-4.61a1.81,1.81,0,1,0,1.83,1.81A1.81,1.81,0,0,0,58.84,54.45Z"/><path class="cls-3" d="M35.15,49.13h0c-9-.08-17.66-1.41-23.69-3.67h0a1.32,1.32,0,0,1-.86-1.22l-.05-1.82a1.33,1.33,0,0,1,1.84-1.27c5.55,2.23,13.86,3.55,22.79,3.63a1.34,1.34,0,0,1,1.33,1.33v1.68a1.31,1.31,0,0,1-.4,1A1.34,1.34,0,0,1,35.15,49.13ZM11.8,44.52c5.93,2.22,14.44,3.53,23.35,3.61.08,0,.18,0,.25-.1a.35.35,0,0,0,.1-.24V46.11a.34.34,0,0,0-.34-.33c-9-.08-17.49-1.43-23.16-3.71a.35.35,0,0,0-.32,0,.33.33,0,0,0-.14.29l.05,1.81a.33.33,0,0,0,.21.31Z"/><path class="cls-3" d="M58.84,46.52a2.81,2.81,0,1,1,2.83-2.81A2.81,2.81,0,0,1,58.84,46.52Zm0-4.62a1.81,1.81,0,1,0,1.83,1.81A1.81,1.81,0,0,0,58.84,41.9Z"/><path class="cls-2" d="M36,66.2c-17.94,0-32-4.73-32-10.78V18.73C4,12.69,18.06,8,36,8s32,4.74,32,10.78V55.42C68,61.47,53.94,66.2,36,66.2ZM36,9C19.2,9,5,13.43,5,18.73V55.42c0,5.3,14.2,9.78,31,9.78s31-4.48,31-9.78V18.73C67,13.43,52.8,9,36,9Z"/></g></svg>