<?xml version="1.0" encoding="utf-8"?>
<!-- Generator: Adobe Illustrator 21.1.0, SVG Export Plug-In . SVG Version: 6.00 Build 0)  -->
<svg version="1.1" id="レイヤー_1" xmlns="http://www.w3.org/2000/svg" xmlns:xlink="http://www.w3.org/1999/xlink" x="0px"
	 y="0px" viewBox="0 0 2184 1657" style="enable-background:new 0 0 2184 1657;" xml:space="preserve">
<style type="text/css">
	.st0{clip-path:url(#SVGID_2_);fill:#DF7F6D;}
	.st1{clip-path:url(#SVGID_4_);fill:#DF7F6D;}
	.st2{clip-path:url(#SVGID_6_);fill:#DF7F6D;}
	.st3{clip-path:url(#SVGID_8_);fill:#DF7F6D;}
	.st4{clip-path:url(#SVGID_10_);fill:#DF7F6D;}
	.st5{clip-path:url(#SVGID_12_);fill:#77B3D1;}
	.st6{clip-path:url(#SVGID_14_);fill:#77B3D1;}
	.st7{clip-path:url(#SVGID_16_);fill:#AC99BF;}
	.st8{clip-path:url(#SVGID_18_);fill:#77B3D1;}
	.st9{clip-path:url(#SVGID_20_);fill:#B2B2B2;}
	.st10{clip-path:url(#SVGID_22_);fill:#AC99BF;}
	.st11{clip-path:url(#SVGID_24_);fill:#AC99BF;}
	.st12{clip-path:url(#SVGID_26_);fill:#AC99BF;}
	.st13{clip-path:url(#SVGID_28_);fill:#B2B2B2;}
	.st14{clip-path:url(#SVGID_30_);fill:#B2B2B2;}
	.st15{clip-path:url(#SVGID_32_);fill:#B2B2B2;}
	.st16{clip-path:url(#SVGID_34_);fill:#CCAF93;}
	.st17{clip-path:url(#SVGID_36_);fill:#7A997A;}
	.st18{clip-path:url(#SVGID_38_);fill:#262626;}
</style>
<g>
	<defs>
		
			<rect id="SVGID_1_" x="1214.123" y="436.1231" transform="matrix(0.7071 -0.7071 0.7071 0.7071 -2.9003 1107.26)" width="242.0158" height="242.0158"/>
	</defs>
	<clipPath id="SVGID_2_">
		<use xlink:href="#SVGID_1_"  style="overflow:visible;"/>
	</clipPath>
	<path class="st0" d="M1335.1309,731.0908l-173.959-173.96l173.959-173.9595l173.959,173.9595L1335.1309,731.0908z
		 M1166.8281,557.1309l168.3027,168.3027l168.3027-168.3027l-168.3027-168.3022L1166.8281,557.1309z"/>
</g>
<g>
	<defs>
		
			<rect id="SVGID_3_" x="766.0001" y="1173" transform="matrix(0.7071 -0.7071 0.7071 0.7071 -688.0961 1085.6261)" width="400.8369" height="400.8369"/>
	</defs>
	<clipPath id="SVGID_4_">
		<use xlink:href="#SVGID_3_"  style="overflow:visible;"/>
	</clipPath>
	<path class="st1" d="M966.4185,1661.0957l-287.6772-287.6768l287.6772-287.6768l287.6772,287.6768L966.4185,1661.0957z
		 M687.2266,1373.4189l279.1919,279.1924l279.1929-279.1924l-279.1929-279.1924L687.2266,1373.4189z"/>
</g>
<g>
	<defs>
		
			<rect id="SVGID_5_" x="276.0161" y="890.0161" transform="matrix(0.7071 -0.7071 0.7071 0.7071 -631.5092 656.2709)" width="400.8369" height="400.8369"/>
	</defs>
	<clipPath id="SVGID_6_">
		<use xlink:href="#SVGID_5_"  style="overflow:visible;"/>
	</clipPath>
	<path class="st2" d="M476.4346,1376.6973l-286.2632-286.2627l1.4146-1.4141l284.8486-284.8491l1.4141,1.4146l284.8491,284.8486
		l-1.4146,1.4141L476.4346,1376.6973z M195.8286,1090.4346l280.606,280.6064l280.606-280.6064l-280.606-280.606L195.8286,1090.4346z
		"/>
</g>
<g>
	<defs>
		
			<rect id="SVGID_7_" x="83.0161" y="673.0161" transform="matrix(0.7071 -0.7071 0.7071 0.7071 -534.5954 456.2415)" width="400.8369" height="400.8369"/>
	</defs>
	<clipPath id="SVGID_8_">
		<use xlink:href="#SVGID_7_"  style="overflow:visible;"/>
	</clipPath>
	<path class="st3" d="M283.4346,1161.1113L-4.2427,873.4346l287.6772-287.6772l287.6772,287.6772L283.4346,1161.1113z
		 M4.2427,873.4346l279.1919,279.1924l279.1919-279.1924L283.4346,594.2427L4.2427,873.4346z"/>
</g>
<g>
	<defs>
		
			<rect id="SVGID_9_" x="1684.6814" y="319.3987" transform="matrix(0.7071 -0.7071 0.7071 0.7071 236.619 1359.5527)" width="149.5067" height="149.5067"/>
	</defs>
	<clipPath id="SVGID_10_">
		<use xlink:href="#SVGID_9_"  style="overflow:visible;"/>
	</clipPath>
	<path class="st4" d="M1759.4355,505.5264l-111.375-111.374l111.375-111.374l111.374,111.374L1759.4355,505.5264z
		 M1659.375,394.1523l100.0605,100.0605l100.0596-100.0605l-100.0596-100.0605L1659.375,394.1523z"/>
</g>
<g>
	<defs>
		
			<rect id="SVGID_11_" x="1262.0164" y="890.0161" transform="matrix(0.7071 -0.7071 0.7071 0.7071 -342.7166 1353.4767)" width="400.8369" height="400.8369"/>
	</defs>
	<clipPath id="SVGID_12_">
		<use xlink:href="#SVGID_11_"  style="overflow:visible;"/>
	</clipPath>
	<path class="st5" d="M1462.4355,1375.2832l-284.8496-284.8486l284.8496-284.8486l284.8477,284.8486L1462.4355,1375.2832z
		 M1180.4141,1090.4346l282.0215,282.0205l282.0195-282.0205l-282.0195-282.0205L1180.4141,1090.4346z"/>
</g>
<g>
	<defs>
		
			<rect id="SVGID_13_" x="235.7687" y="365.7686" transform="matrix(0.7071 -0.7071 0.7071 0.7071 -288.351 512.2936)" width="476.8972" height="476.8972"/>
	</defs>
	<clipPath id="SVGID_14_">
		<use xlink:href="#SVGID_13_"  style="overflow:visible;"/>
	</clipPath>
	<path class="st6" d="M474.2173,947.0918l-342.874-342.8745l342.874-342.874l342.874,342.874L474.2173,947.0918z M142.6567,604.2173
		l331.5605,331.5601l331.5605-331.5601L474.2173,272.6567L142.6567,604.2173z"/>
</g>
<g>
	<defs>
		
			<rect id="SVGID_15_" x="1511.0164" y="890.0161" transform="matrix(0.7071 -0.7071 0.7071 0.7071 -269.7864 1529.5461)" width="400.8369" height="400.8369"/>
	</defs>
	<clipPath id="SVGID_16_">
		<use xlink:href="#SVGID_15_"  style="overflow:visible;"/>
	</clipPath>
	<path class="st7" d="M1711.4355,1376.6973l-286.2637-286.2627l286.2637-286.2632l1.4141,1.4146l284.8477,284.8486
		L1711.4355,1376.6973z M1430.8281,1090.4346l280.6074,280.6064l280.6055-280.6064l-280.6055-280.606L1430.8281,1090.4346z"/>
</g>
<g>
	<defs>
		
			<rect id="SVGID_17_" x="1700.0164" y="673.0161" transform="matrix(0.7071 -0.7071 0.7071 0.7071 -60.9879 1599.631)" width="400.8369" height="400.8369"/>
	</defs>
	<clipPath id="SVGID_18_">
		<use xlink:href="#SVGID_17_"  style="overflow:visible;"/>
	</clipPath>
	<path class="st8" d="M1900.4355,1162.5264l-2.8281-2.8291l-286.2646-286.2627l2.8291-2.8281l286.2637-286.2632l289.0908,289.0913
		l-2.8291,2.8281L1900.4355,1162.5264z M1622.6572,873.4346l277.7783,277.7773l277.7764-277.7773l-277.7764-277.7778
		L1622.6572,873.4346z"/>
</g>
<g>
	<defs>
		
			<rect id="SVGID_19_" x="237.9151" y="98.915" transform="matrix(0.7071 -0.7071 0.7071 0.7071 -99.1748 436.0052)" width="477.6043" height="477.6043"/>
	</defs>
	<clipPath id="SVGID_20_">
		<use xlink:href="#SVGID_19_"  style="overflow:visible;"/>
	</clipPath>
	<path class="st9" d="M476.7173,681.0913l-343.374-343.374l343.374-343.374l343.374,343.374L476.7173,681.0913z M144.6567,337.7173
		l332.0605,332.0605l332.0605-332.0605L476.7173,5.6567L144.6567,337.7173z"/>
</g>
<g>
	<defs>
		
			<rect id="SVGID_21_" x="728" y="99" transform="matrix(0.7071 -0.7071 0.7071 0.7071 44.3075 782.572)" width="477.6042" height="477.6042"/>
	</defs>
	<clipPath id="SVGID_22_">
		<use xlink:href="#SVGID_21_"  style="overflow:visible;"/>
	</clipPath>
	<path class="st10" d="M966.8022,679.7622l-2.1216-2.1211L624.8423,337.8022l2.1211-2.1216L966.8022-4.1577l2.1216,2.1211
		l339.8379,339.8389l-2.1211,2.1216L966.8022,679.7622z M633.3276,337.8022l333.4746,333.4746l333.4751-333.4746L966.8022,4.3276
		L633.3276,337.8022z"/>
</g>
<g>
	<defs>
		
			<rect id="SVGID_23_" x="1232.3453" y="218.3454" transform="matrix(0.7071 -0.7071 0.7071 0.7071 164.2065 1037.5818)" width="204.4613" height="204.4613"/>
	</defs>
	<clipPath id="SVGID_24_">
		<use xlink:href="#SVGID_23_"  style="overflow:visible;"/>
	</clipPath>
	<path class="st11" d="M1334.5762,472.2231l-151.6475-151.6475l151.6475-151.647l151.6475,151.647L1334.5762,472.2231z
		 M1197.0713,320.5757l137.5049,137.5049l137.5049-137.5049l-137.5049-137.5044L1197.0713,320.5757z"/>
</g>
<g>
	<defs>
		
			<rect id="SVGID_25_" x="380.3347" y="522.1227" transform="matrix(0.7071 -0.7071 0.7071 0.7071 -290.7096 501.3163)" width="158.9065" height="158.9065"/>
	</defs>
	<clipPath id="SVGID_26_">
		<use xlink:href="#SVGID_25_"  style="overflow:visible;"/>
	</clipPath>
	<path class="st12" d="M459.7881,718.1821L343.1816,601.5757l116.6064-116.6064l116.6064,116.6064L459.7881,718.1821z
		 M351.667,601.5757l108.1211,108.1211l108.1211-108.1211L459.7881,493.4546L351.667,601.5757z"/>
</g>
<g>
	<defs>
		
			<rect id="SVGID_27_" x="481.9152" y="634.915" transform="matrix(0.7071 -0.7071 0.7071 0.7071 -406.7182 765.5308)" width="477.6045" height="477.6045"/>
	</defs>
	<clipPath id="SVGID_28_">
		<use xlink:href="#SVGID_27_"  style="overflow:visible;"/>
	</clipPath>
	<path class="st13" d="M720.7173,1214.2627L380.1714,873.7168l1.4146-1.4141l339.1313-339.1313l1.4141,1.4146l339.1318,339.1309
		l-1.4146,1.4141L720.7173,1214.2627z M385.8286,873.7168l334.8887,334.8896l334.8887-334.8896L720.7173,538.8286L385.8286,873.7168
		z"/>
</g>
<g>
	<defs>
		
			<rect id="SVGID_29_" x="484.9152" y="898.915" transform="matrix(0.7071 -0.7071 0.7071 0.7071 -592.5159 844.9761)" width="477.6045" height="477.6045"/>
	</defs>
	<clipPath id="SVGID_30_">
		<use xlink:href="#SVGID_29_"  style="overflow:visible;"/>
	</clipPath>
	<path class="st14" d="M723.7173,1478.2627l-340.5459-340.5459l1.4146-1.4141l339.1313-339.1313l1.4141,1.4146l339.1318,339.1309
		l-1.4146,1.4141L723.7173,1478.2627z M388.8286,1137.7168l334.8887,334.8896l334.8887-334.8896L723.7173,802.8286
		L388.8286,1137.7168z"/>
</g>
<g>
	<defs>
		
			<rect id="SVGID_31_" x="331.8618" y="1312.9197" transform="matrix(0.7071 -0.7071 0.7071 0.7071 -890.1403 761.5634)" width="284.7106" height="284.7106"/>
	</defs>
	<clipPath id="SVGID_32_">
		<use xlink:href="#SVGID_31_"  style="overflow:visible;"/>
	</clipPath>
	<path class="st15" d="M474.2173,1658.2822l-0.8433-0.8438l-202.1636-202.1631l203.0068-203.0078l0.8433,0.8438l202.1636,202.1641
		L474.2173,1658.2822z M274.5825,1455.2754l199.6348,199.6338l199.6348-199.6338l-199.6348-199.6348L274.5825,1455.2754z"/>
</g>
<g>
	<defs>
		
			<rect id="SVGID_33_" x="1464.5295" y="348.6714" transform="matrix(0.7071 -0.7071 0.7071 0.7071 80.0143 1384.8894)" width="494.3749" height="494.3749"/>
	</defs>
	<clipPath id="SVGID_34_">
		<use xlink:href="#SVGID_33_"  style="overflow:visible;"/>
	</clipPath>
	<path class="st16" d="M1711.7168,951.0918l-2.8281-2.8291l-352.4053-352.4038l355.2334-355.2329l355.2334,355.2329
		L1711.7168,951.0918z M1367.7979,595.8589l343.9189,343.9185l343.9189-343.9185l-343.9189-343.9194L1367.7979,595.8589z"/>
</g>
<g>
	<defs>
		
			<rect id="SVGID_35_" x="484.9152" y="368.9149" transform="matrix(0.7071 -0.7071 0.7071 0.7071 -217.7489 689.7427)" width="477.6045" height="477.6045"/>
	</defs>
	<clipPath id="SVGID_36_">
		<use xlink:href="#SVGID_35_"  style="overflow:visible;"/>
	</clipPath>
	<path class="st17" d="M723.7173,949.6768l-2.1216-2.1211L381.7573,607.7173l2.1211-2.1216l339.8389-339.8384l2.1216,2.1211
		l339.8384,339.8389l-2.1211,2.1216L723.7173,949.6768z M390.2427,607.7173l333.4746,333.4751l333.4746-333.4751L723.7173,274.2427
		L390.2427,607.7173z"/>
</g>
<g>
	<defs>
		
			<rect id="SVGID_37_" x="1648.9932" y="483.0631" transform="matrix(0.7071 -0.7071 0.7071 0.7071 95.4795 1418.3661)" width="221.7318" height="221.7318"/>
	</defs>
	<clipPath id="SVGID_38_">
		<use xlink:href="#SVGID_37_"  style="overflow:visible;"/>
	</clipPath>
	<path class="st18" d="M1759.8594,754.9595l-161.0303-161.0308l161.0303-161.0303l161.0293,161.0303L1759.8594,754.9595z
		 M1607.3135,593.9287l152.5459,152.5454l152.5449-152.5454l-152.5449-152.5449L1607.3135,593.9287z"/>
</g>
</svg>
