<?xml version="1.0" encoding="utf-8"?>
<!-- Generator: Adobe Illustrator 23.0.6, SVG Export Plug-In . SVG Version: 6.00 Build 0)  -->
<svg version="1.1" id="レイヤー_1" xmlns="http://www.w3.org/2000/svg" xmlns:xlink="http://www.w3.org/1999/xlink" x="0px"
	 y="0px" viewBox="0 0 48 48" style="enable-background:new 0 0 48 48;" xml:space="preserve" width="48px" height="48px">
<style type="text/css">
	.st0{fill:#262626;}
</style>
<title>Question</title>
<path id="Sketch" class="st0" d="M24,7c9.4,0,17,7.6,17,17s-7.6,17-17,17S7,33.4,7,24S14.6,7,24,7 M24,4C13,4,4,13,4,24s9,20,20,20
	s20-9,20-20S35,4,24,4z"/>
<g>
	<g>
		<g>
			<path d="M22.3,27.9v-1.4h-3.9v-2.1h2.8l-4.5-7.9h3.6l3.7,7.1l3.7-7.1h3.5l-4.5,7.9h2.8v2.1h-3.9v1.4h3.9V30h-3.9v3.4h-3.3V30
				h-3.9v-2.1H22.3z"/>
		</g>
	</g>
</g>
</svg>
