<?xml version="1.0" encoding="utf-8"?>
<!-- Generator: Adobe Illustrator 23.0.6, SVG Export Plug-In . SVG Version: 6.00 Build 0)  -->
<svg version="1.1" id="icon-check" xmlns="http://www.w3.org/2000/svg" xmlns:xlink="http://www.w3.org/1999/xlink" x="0px" y="0px"
	 viewBox="0 0 90 90" style="enable-background:new 0 0 90 90;" xml:space="preserve">
<style type="text/css">
	.st0{fill:#006699;}
</style>
<g transform="translate(0,-952.36218)">
	<path class="st0" d="M66.7,978.3c-0.8,0.1-1.5,0.5-2,1.1l-24.9,29.5l-14.7-14.7c-1.1-1.2-3-1.4-4.2-0.3c-1.2,1.1-1.4,3-0.3,4.2
		c0.1,0.1,0.2,0.2,0.3,0.3l17,17c1.2,1.2,3.1,1.2,4.2,0c0.1-0.1,0.1-0.1,0.2-0.2l27-32c1.1-1.3,0.9-3.2-0.3-4.2
		C68.3,978.5,67.5,978.2,66.7,978.3z"/>
</g>
</svg>
