<?xml version="1.0" encoding="utf-8"?>
<!-- Generator: Adobe Illustrator 23.0.6, SVG Export Plug-In . SVG Version: 6.00 Build 0)  -->
<svg version="1.1" id="レイヤー_1" xmlns="http://www.w3.org/2000/svg" xmlns:xlink="http://www.w3.org/1999/xlink" x="0px"
	 y="0px" viewBox="0 0 100 70" style="enable-background:new 0 0 100 70;" xml:space="preserve" width="100px" height="70px">
<style type="text/css">
	.st0{fill:#FFFFFF;}
	.st1{fill-rule:evenodd;clip-rule:evenodd;fill:#FFFFFF;}
</style>
<title>アセット 2</title>
<g>
	<g>
		<g>
			<path class="st0" d="M94.1,0v56.5H5.9V0H94.1 M11.1,50.9h1.6h74.6h1.6v-1.6V7.1V5.5h-1.6H12.7h-1.6v1.6v42.2L11.1,50.9 M57.9,20
				l17.5,6.7l-1.5,1.5l-1.5,1.5l-1.1,1.1l1.1,1.1l7.1,7.1l-2.6,2.6l-7.1-7.1l-1.1-1.1l-1.1,1.1l-3,3L57.9,20 M100,63.8v5.7
				c0,0.3-0.2,0.5-0.5,0.5h-99C0.2,70,0,69.8,0,69.5v-5.7H100"/>
		</g>
		<g>
			<g>
				<polygon class="st1" points="18.9,15.9 18.9,20.6 46.8,20.6 46.8,15.9 				"/>
			</g>
			<g>
				<polygon class="st1" points="18.9,24.4 18.9,29 46.8,29 46.8,24.4 				"/>
			</g>
			<g>
				<rect x="18.9" y="32.8" class="st1" width="27.9" height="4.6"/>
			</g>
		</g>
	</g>
</g>
</svg>
