<?xml version="1.0" encoding="utf-8"?>
<!-- Generator: Adobe Illustrator 23.0.6, SVG Export Plug-In . SVG Version: 6.00 Build 0)  -->
<svg version="1.1" id="icon-check" xmlns="http://www.w3.org/2000/svg" xmlns:xlink="http://www.w3.org/1999/xlink" x="0px" y="0px"
	 viewBox="0 0 90 90" style="enable-background:new 0 0 90 90;" xml:space="preserve" width="90px" height="90px">
<style type="text/css">
	.st0{fill:#006699;}
</style>
<g transform="translate(0,-952.36218)">
	<path class="st0" d="M45,952.4c-24.8,0-45,20.2-45,45s20.2,45,45,45s45-20.2,45-45S69.8,952.4,45,952.4z M45,958.4
		c21.6,0,39,17.4,39,39s-17.4,39-39,39s-39-17.4-39-39C6,975.8,23.4,958.4,45,958.4z M66.7,978.3c-0.8,0.1-1.5,0.5-2,1.1l-24.9,29.5
		l-14.7-14.7c-1.1-1.2-3-1.4-4.2-0.3c-1.2,1.1-1.4,3-0.3,4.2c0.1,0.1,0.2,0.2,0.3,0.3l17,17c1.2,1.2,3.1,1.2,4.2,0
		c0.1-0.1,0.1-0.1,0.2-0.2l27-32c1.1-1.3,0.9-3.2-0.3-4.2C68.3,978.5,67.5,978.2,66.7,978.3z"/>
</g>
</svg>
