<?xml version="1.0" encoding="utf-8"?>
<!-- Generator: Adobe Illustrator 23.0.3, SVG Export Plug-In . SVG Version: 6.00 Build 0)  -->
<svg version="1.1" id="レイヤー_1" xmlns="http://www.w3.org/2000/svg" xmlns:xlink="http://www.w3.org/1999/xlink" x="0px"
	 y="0px" viewBox="0 0 48 48" style="enable-background:new 0 0 48 48;" xml:space="preserve">
<style type="text/css">
	.st0{fill:#FF002A;}
</style>
<path class="st0" d="M43.2,16.4c-0.3-3.8-2.1-6.8-5.5-8.9l-0.1-0.1c-1.3-0.7-3.4-1.6-6.4-1.4s-4.4,1.1-5.1,1.6
	c-0.8,0.5-1.6,1.1-2.1,1.6c-0.5-0.5-1.3-1.1-2.1-1.6c-0.6-0.4-2.1-1.4-5.1-1.6c-2.4-0.2-4.5,0.3-6.4,1.4c-1.6,0.9-5.3,3.4-5.7,8.9
	c-0.4,5.4,2.6,9.1,5.1,12.1l0.2,0.3c2.6,3.2,12.6,12.1,13,12.5l1,0.8l0.9-0.8c0.4-0.4,10.4-9.2,13-12.5l0.2-0.3
	C40.6,25.5,43.6,21.8,43.2,16.4z"/>
</svg>
