<svg xmlns="http://www.w3.org/2000/svg" viewBox="0 0 72 72"><defs><style>.cls-1{fill:#fff;}.cls-2{fill:#262626;}.cls-3{fill:#b2b2b2;}</style></defs><title>Artboard 2v</title><g id="bg"><rect class="cls-1" width="72" height="72"/></g><g id="contents"><path class="cls-2" d="M36,69.83a30,30,0,1,1,30-30A30,30,0,0,1,36,69.83Zm0-59a29,29,0,1,0,29,29A29,29,0,0,0,36,10.83Z"/><path class="cls-3" d="M36,67.83a28,28,0,1,1,28-28A28,28,0,0,1,36,67.83Zm0-55a27,27,0,1,0,27,27A27,27,0,0,0,36,12.83Z"/><path class="cls-3" d="M36,17.49a.5.5,0,0,1-.5-.5V12.58a.5.5,0,1,1,1,0V17A.5.5,0,0,1,36,17.49Z"/><path class="cls-3" d="M29.52,16.05a.5.5,0,0,1-.48-.38l-.54-2a.5.5,0,1,1,1-.25l.55,2a.5.5,0,0,1-.36.61Z"/><path class="cls-3" d="M23.49,18.56a.5.5,0,0,1-.43-.25l-1-1.83a.5.5,0,1,1,.86-.5l1.05,1.83a.49.49,0,0,1-.18.68A.47.47,0,0,1,23.49,18.56Z"/><path class="cls-3" d="M18.31,22.55a.54.54,0,0,1-.36-.14l-1.48-1.5a.48.48,0,0,1,0-.7.5.5,0,0,1,.71,0l1.48,1.49a.5.5,0,0,1,0,.71A.47.47,0,0,1,18.31,22.55Z"/><path class="cls-3" d="M14.33,27.76a.47.47,0,0,1-.25-.07l-1.82-1.05a.5.5,0,0,1,.5-.87l1.82,1.06a.5.5,0,0,1-.25.93Z"/><path class="cls-3" d="M11.83,33.83l-.13,0-2-.55a.5.5,0,0,1-.35-.61.49.49,0,0,1,.61-.35l2,.54a.5.5,0,0,1-.13,1Z"/><path class="cls-3" d="M13.26,40.33H8.88a.5.5,0,0,1-.5-.5.5.5,0,0,1,.5-.5h4.38a.5.5,0,0,1,.5.5A.5.5,0,0,1,13.26,40.33Z"/><path class="cls-3" d="M9.8,47.39a.5.5,0,0,1-.13-1l2-.55a.5.5,0,0,1,.26,1l-2,.54Z"/><path class="cls-3" d="M12.51,54a.5.5,0,0,1-.25-.93L14.08,52a.5.5,0,0,1,.68.19.5.5,0,0,1-.18.68L12.76,53.9A.54.54,0,0,1,12.51,54Z"/><path class="cls-3" d="M16.82,59.61a.49.49,0,0,1-.35-.15.5.5,0,0,1,0-.71L18,57.26a.51.51,0,0,1,.71,0,.5.5,0,0,1,0,.71l-1.48,1.49A.51.51,0,0,1,16.82,59.61Z"/><path class="cls-3" d="M22.44,63.94a.45.45,0,0,1-.25-.07.49.49,0,0,1-.18-.68l1-1.83a.5.5,0,0,1,.86.5l-1.05,1.83A.5.5,0,0,1,22.44,63.94Z"/><path class="cls-3" d="M29,66.66h-.13A.51.51,0,0,1,28.5,66L29,64a.5.5,0,0,1,.61-.35.5.5,0,0,1,.36.61l-.55,2A.5.5,0,0,1,29,66.66Z"/><path class="cls-3" d="M36,67.59a.5.5,0,0,1-.5-.5V62.68a.5.5,0,0,1,1,0v4.41A.5.5,0,0,1,36,67.59Z"/><path class="cls-3" d="M43,66.66a.5.5,0,0,1-.48-.37l-.55-2a.5.5,0,0,1,.36-.61A.5.5,0,0,1,43,64l.54,2a.51.51,0,0,1-.35.62Z"/><path class="cls-3" d="M49.56,63.94a.5.5,0,0,1-.43-.25l-1.05-1.83a.5.5,0,0,1,.86-.5L50,63.19a.49.49,0,0,1-.18.68A.45.45,0,0,1,49.56,63.94Z"/><path class="cls-3" d="M55.18,59.61a.51.51,0,0,1-.36-.15L53.34,58a.5.5,0,0,1,0-.71.5.5,0,0,1,.71,0l1.48,1.49a.5.5,0,0,1,0,.71A.49.49,0,0,1,55.18,59.61Z"/><path class="cls-3" d="M59.49,54a.54.54,0,0,1-.25-.06l-1.82-1.06a.5.5,0,0,1,.5-.87L59.74,53a.5.5,0,0,1-.25.93Z"/><path class="cls-3" d="M57.67,27.76a.5.5,0,0,1-.25-.93l1.82-1.06a.51.51,0,0,1,.68.18.51.51,0,0,1-.18.69l-1.82,1.05A.47.47,0,0,1,57.67,27.76Z"/><path class="cls-3" d="M53.69,22.55a.47.47,0,0,1-.35-.14.5.5,0,0,1,0-.71l1.48-1.49a.5.5,0,0,1,.71,0,.48.48,0,0,1,0,.7l-1.48,1.5A.54.54,0,0,1,53.69,22.55Z"/><path class="cls-3" d="M48.51,18.56a.47.47,0,0,1-.25-.07.49.49,0,0,1-.18-.68L49.13,16a.5.5,0,1,1,.86.5l-1.05,1.83A.5.5,0,0,1,48.51,18.56Z"/><path class="cls-3" d="M42.48,16.05l-.13,0a.5.5,0,0,1-.36-.61l.55-2a.5.5,0,1,1,1,.25l-.54,2A.5.5,0,0,1,42.48,16.05Z"/><path class="cls-3" d="M36,57.83a18,18,0,0,1-18-18,.5.5,0,0,1,1,0,17,17,0,1,0,17-17,.5.5,0,0,1-.5-.5.5.5,0,0,1,.5-.5,18,18,0,0,1,0,36Z"/><path class="cls-3" d="M62.2,47.39l-.13,0-2-.54a.5.5,0,0,1,.26-1l2,.55a.5.5,0,0,1-.13,1Z"/><path class="cls-3" d="M63.12,40.33H58.74a.5.5,0,0,1-.5-.5.5.5,0,0,1,.5-.5h4.38a.5.5,0,0,1,.5.5A.5.5,0,0,1,63.12,40.33Z"/><path class="cls-3" d="M60.17,33.83a.5.5,0,0,1-.13-1l2-.54a.5.5,0,1,1,.26,1l-2,.55Z"/><path class="cls-2" d="M38,8.09h-3.9a1,1,0,0,1-1-1V3.17a1,1,0,0,1,1-1H38a1,1,0,0,1,1,1V7.09A1,1,0,0,1,38,8.09Zm-3.9-4.92V7.09H38V3.17Z"/><path class="cls-2" d="M36,8.09a.5.5,0,0,1-.5-.5V2.67a.5.5,0,0,1,1,0V7.59A.5.5,0,0,1,36,8.09Z"/><path class="cls-2" d="M38,8.09h-.73a.5.5,0,0,1-.5-.5.51.51,0,0,1,.5-.5H38V3.17h-3.9V7.09h.74a.51.51,0,0,1,.5.5.5.5,0,0,1-.5.5h-.74a1,1,0,0,1-1-1V3.17a1,1,0,0,1,1-1H38a1,1,0,0,1,1,1V7.09A1,1,0,0,1,38,8.09Z"/><path class="cls-2" d="M34.79,10.83a.5.5,0,0,1-.5-.5V7.59a.5.5,0,0,1,.5-.5.51.51,0,0,1,.5.5v2.74A.5.5,0,0,1,34.79,10.83Z"/><path class="cls-2" d="M37.22,10.83a.5.5,0,0,1-.5-.5V7.59a.51.51,0,0,1,.5-.5.5.5,0,0,1,.5.5v2.74A.5.5,0,0,1,37.22,10.83Z"/><path class="cls-2" d="M33,45.54a.55.55,0,0,1-.25-.07.49.49,0,0,1-.18-.68l13-22.52a.5.5,0,1,1,.86.5l-13,22.52A.5.5,0,0,1,33,45.54Z"/><circle class="cls-1" cx="36.01" cy="39.83" r="1.5"/><path class="cls-2" d="M36,41.83a2,2,0,1,1,2-2A2,2,0,0,1,36,41.83Zm0-3a1,1,0,1,0,1,1A1,1,0,0,0,36,38.83Z"/></g></svg>