<svg xmlns="http://www.w3.org/2000/svg" viewBox="0 0 62 54"><path fill="none" stroke="#D8D8D8" stroke-width="2" stroke-linecap="round" stroke-linejoin="round" stroke-miterlimit="10" d="M31 1l15 26 15 26H1l15-26z"/><path fill="#D8D8D8" stroke="#D8D8D8" stroke-width=".75" stroke-linecap="round" stroke-linejoin="round" stroke-miterlimit="10" d="M28.8 40.2c0-.7.2-1.2.6-1.6.4-.4.9-.5 1.6-.5.7 0 1.2.2 1.6.5.4.4.6.9.6 1.6 0 .7-.2 1.2-.6 1.6-.4.4-.9.6-1.6.6-.7 0-1.2-.2-1.6-.6-.4-.4-.6-.9-.6-1.6zm3.7-4.3h-3l-.6-12.2h4.3l-.7 12.2z"/></svg>