<svg xmlns="http://www.w3.org/2000/svg" viewBox="0 0 500 88.029"><style>.st0{fill:#fff}</style><path class="st0" d="M224.377 15.473C212.646 4.829 197.3 0 178.128 0c-17.324 0-35.729 5.949-46.146 15.447-8.305 7.569-12.555 17.977-12.555 28.49 0 10.638 4.074 20.978 12.555 28.588 11.223 10.07 28.034 15.504 46.146 15.504 18.161 0 35.326-5.367 46.249-15.504 8.099-7.516 12.384-18.383 12.384-28.588 0-10.527-4.037-20.889-12.384-28.464zm-21.491 51.431c-6.227 6.193-15.143 9.514-24.758 9.514-9.54 0-18.646-3.392-24.798-9.514-5.894-5.863-9.042-14.16-9.042-22.966 0-8.836 3.116-17.145 9.042-23.014 6.147-6.088 15.286-9.46 24.798-9.46 9.484 0 18.612 3.405 24.758 9.46 5.959 5.873 9.068 14.152 9.068 23.014 0 9.243-2.882 16.812-9.068 22.966zM45.745.042c-9.688 0-20.697 1.813-30.047 5.989C7.067 9.885 0 16.111 0 26.438c-.005 9.299 5.906 14.744 5.745 14.596 2.516 2.314 6.562 6.255 17.143 8.572 4.729 1.033 14.84 2.619 24.91 3.676 9.99 1.053 19.829 2.053 23.832 3.068 3.183.811 8.533 1.914 8.533 7.91 0 5.975-5.633 7.799-6.612 8.191-.979.391-7.737 3.488-19.882 3.488-8.969 0-19.748-2.697-23.68-4.101-4.527-1.613-9.281-3.746-13.713-9.158-1.102-1.346-2.841-5.035-2.841-8.691H2.441v30.805h12.221V80.63c0-.473.591-2.424 2.642-1.494 2.553 1.16 10.044 4.143 17.877 5.779 6.423 1.34 10.564 2.303 18.549 2.303 13.027 0 20.027-2.119 24.865-3.502 4.559-1.303 10.188-3.648 14.767-7.297 2.476-1.973 7.909-7.031 7.909-16.211 0-8.809-4.726-14.277-6.391-15.941-2.266-2.267-5.035-4.027-7.92-5.381-2.512-1.182-6.479-2.602-9.723-3.397-6.299-1.547-20.539-3.453-27.352-4.165-7.14-.747-19.529-1.774-24.477-3.306-1.501-.465-4.555-1.922-4.555-5.47 0-2.525 1.396-4.667 4.16-6.397 4.387-2.747 13.248-4.459 22.488-4.459 10.92-.038 20.17 2.46 26.054 5.088 2.003.893 4.341 2.179 6.202 3.697 2.096 1.711 5.047 5.264 6.108 10.223h9.87V3.887h-11.02V7c0 1.01-1.038 2.316-3.001 1.233C76.783 5.65 62.838.067 45.745.042zm241.499 4.873l53.758 48.512-.551-32.662c-.057-4.284-.846-6.072-5.477-6.072h-10.109v-9.77h45.967v9.771h-9.863c-4.723 0-5.02 1.513-5.08 6.072l.834 62.414H340.98l-61.912-55.261.01 39.216c.057 4.266.254 6.271 4.647 6.271h11.041v9.77h-45.142v-9.77h10.553c3.941 0 3.785-3.758 3.785-6.492V21.136c0-2.954-.416-6.436-6.604-6.436h-8.56V4.915h38.446zm136.11 68.473c.43 0 2.348-.057 2.719-.17a3.372 3.372 0 0 0 2.117-1.877c.141-.33.211-1.799.211-2.113l.006-15.443c0-.371-.027-.533-.656-1.357-.693-.906-28.156-32.029-29.414-33.398-1.561-1.704-4.301-4.334-8.469-4.334h-9.549V4.919h53.9v9.763h-6.498c-1.5 0-2.498 1.426-1.217 3.01 0 0 18.137 21.694 18.309 21.924.17.229.315.285.543.071.227-.215 18.59-21.794 18.734-21.966.873-1.046.285-3.025-1.6-3.025h-6.67V4.919H500v9.776h-9.869c-3.582 0-5.039.66-7.732 3.707-1.232 1.393-28.988 33.076-29.744 33.935-.396.449-.359 1.076-.359 1.447v15.438c0 .312.07 1.781.211 2.111.332.793 1.055 1.549 2.117 1.877.371.115 2.264.172 2.693.172h10.096v9.773h-53.625v-9.773l9.566.006z"/></svg>